<svg version="1.1" id="Layer_1" xmlns="http://www.w3.org/2000/svg" xmlns:xlink="http://www.w3.org/1999/xlink" x="0px" y="0px"
	 width="100%" viewBox="0 0 128 112" enable-background="new 0 0 128 112" xml:space="preserve">
<path fill="#000000" opacity="1.000000" stroke="none" 
	d="
M86.977844,82.307358 
	C83.586380,89.079269 78.301468,91.455833 70.972260,91.163704 
	C60.828503,90.759399 50.656185,91.112007 40.496635,91.051163 
	C31.748541,90.998772 27.714424,86.967018 27.648478,78.150673 
	C27.572487,67.991394 27.547754,57.829868 27.675873,47.671524 
	C27.777308,39.628574 31.746859,35.750195 39.744823,35.698685 
	C49.737770,35.634327 59.741497,35.960457 69.721504,35.595963 
	C77.085106,35.327026 83.445503,36.252445 86.360664,43.974178 
	C89.286690,43.674553 90.847137,41.727173 92.857101,40.630890 
	C98.742348,37.420952 103.178268,39.877010 103.240814,46.609600 
	C103.342934,57.601315 103.231720,68.594872 103.287735,79.587257 
	C103.303299,82.641342 102.567810,85.158081 99.693672,86.713310 
	C96.667854,88.350624 94.263336,86.877068 91.852600,85.272476 
	C90.333466,84.261330 88.794426,83.280090 86.977844,82.307358 
M81.641075,59.519737 
	C81.613304,55.696182 81.795891,51.856667 81.507324,48.052898 
	C81.097786,42.654507 78.962318,40.563072 73.586449,40.489662 
	C62.614330,40.339836 51.637871,40.341984 40.665226,40.463966 
	C34.883156,40.528244 32.732311,42.558922 32.590954,48.290226 
	C32.336941,58.589306 32.115345,68.891495 32.878853,79.195526 
	C33.232124,83.963135 35.326443,85.954712 40.133568,85.878372 
	C51.105011,85.704163 62.081295,85.862930 73.055054,85.795448 
	C79.433449,85.756226 81.328972,83.952065 81.555405,77.471260 
	C81.752693,71.824486 81.623627,66.166313 81.641075,59.519737 
M96.751480,81.981850 
	C98.451042,81.018417 97.859993,79.347977 97.869385,77.962685 
	C97.934639,68.339607 97.938782,58.715858 97.897400,49.092602 
	C97.891304,47.675404 98.320610,46.074467 96.980782,44.927830 
	C88.955879,47.392330 86.234543,50.812691 86.227135,58.404419 
	C86.225349,60.229576 86.509590,62.107800 86.178848,63.870930 
	C84.528725,72.667419 88.120705,78.475456 96.751480,81.981850 
z"/>
</svg>