<svg version="1.1" id="Layer_1" xmlns="http://www.w3.org/2000/svg" xmlns:xlink="http://www.w3.org/1999/xlink" x="0px" y="0px"
	 width="100%" viewBox="0 0 624 400" enable-background="new 0 0 624 400" xml:space="preserve">
<path fill="#000000" opacity="1.000000" stroke="none" 
	d="
M393.000000,401.000000 
	C262.031830,401.000000 131.563675,401.000000 1.047755,401.000000 
	C1.047755,267.731049 1.047755,134.462067 1.047755,1.096548 
	C208.884842,1.096548 416.769745,1.096548 624.827332,1.096548 
	C624.827332,134.333160 624.827332,267.666565 624.827332,401.000000 
	C547.795349,401.000000 470.647675,401.000000 393.000000,401.000000 
M407.438721,188.281036 
	C406.288513,188.836807 405.138306,189.392578 403.420593,189.646484 
	C401.980316,187.895752 398.126953,188.644028 398.560120,184.953110 
	C397.696259,185.170624 396.832397,185.388138 395.306244,185.540070 
	C394.642242,185.553528 393.978241,185.566986 392.514709,185.225555 
	C391.646332,185.174759 390.777954,185.123978 389.149902,185.420395 
	C388.774811,188.597626 388.399719,191.774841 387.805115,194.324112 
	C385.677490,192.471405 383.549835,190.618698 381.124390,188.085526 
	C379.151001,187.267975 377.177612,186.450424 375.090759,185.148300 
	C374.749725,185.313904 374.408661,185.479523 373.171265,185.655609 
	C370.252930,185.656479 367.334595,185.657333 363.742523,185.243301 
	C363.488007,185.174072 363.233490,185.104858 362.442749,185.029007 
	C362.282715,185.325867 362.122681,185.622726 361.956268,185.980103 
	C361.956268,185.980103 361.992035,185.931366 361.282806,186.208206 
	C359.883057,186.867432 358.483276,187.526657 357.078491,187.407410 
	C356.530670,186.385941 355.982880,185.364471 355.435089,184.343002 
	C354.927124,184.787628 354.419128,185.232239 353.201691,185.606674 
	C352.255615,185.657333 351.309570,185.707993 349.707275,185.353638 
	C344.747070,183.886078 350.429657,189.862503 346.385895,189.473282 
	C345.074310,188.738892 343.916077,187.364105 342.523712,186.293854 
	C341.903046,185.816742 340.811310,185.952530 339.172791,185.677841 
	C337.889954,185.700500 336.607117,185.723160 334.591248,185.358826 
	C331.614227,185.475555 328.659790,186.163712 324.992279,185.640640 
	C324.099854,185.680496 323.207428,185.720367 321.718353,185.335663 
	C320.014404,186.157639 318.310425,186.979599 316.568542,187.819855 
	C315.472076,186.855942 314.457123,185.730286 313.229340,184.931885 
	C310.487885,183.149231 305.794525,184.790833 304.234100,187.591278 
	C303.162903,187.051132 302.091736,186.511002 300.567993,185.344818 
	C295.924316,183.268372 290.124573,182.464584 287.548828,186.555084 
	C285.335571,190.069931 286.559418,195.749130 286.322815,199.524002 
	C285.370117,202.459183 283.758179,204.886276 284.192993,206.863205 
	C284.562286,208.542267 287.293213,209.701874 288.671661,211.674622 
	C290.204865,217.125229 294.824371,215.580658 298.533875,215.956100 
	C303.229340,216.431335 306.512512,213.524963 307.632721,209.772690 
	C308.385284,207.251999 306.489532,203.889130 305.598175,200.957962 
	C305.298859,199.973663 304.442719,199.158676 304.334534,198.998230 
	C305.572632,197.333954 306.392029,196.232468 307.591125,194.550766 
	C307.431061,194.384033 307.270966,194.217316 307.031799,194.066620 
	C307.031799,194.066620 307.093018,194.119217 307.671753,194.567215 
	C309.482910,198.150330 311.426178,201.674759 313.053192,205.339630 
	C313.956726,207.374878 314.332397,209.644455 315.610870,211.998199 
	C315.970795,212.296005 316.689819,212.703079 316.637390,212.875397 
	C315.683777,216.009125 317.615509,216.260330 319.803040,215.953873 
	C321.998260,215.646347 326.037842,217.230316 325.660004,213.508133 
	C325.026917,207.270599 328.121246,202.466431 330.704956,197.408340 
	C330.875549,198.378204 331.061066,199.345718 331.214142,200.318344 
	C331.779724,203.912033 332.334564,207.507416 332.956573,211.088135 
	C332.956573,211.088135 332.931793,211.028427 333.090363,211.496292 
	C333.285919,211.816330 333.568909,211.947174 334.569916,212.254013 
	C336.574188,215.174484 339.364258,217.215988 342.753479,215.724899 
	C344.297485,215.045593 344.888458,212.200073 345.953766,210.260498 
	C349.351868,214.786865 353.584229,218.119415 360.716644,214.759338 
	C361.140228,212.860596 361.563812,210.961868 361.956543,209.011124 
	C361.956543,209.011124 361.945770,209.070618 361.906403,209.700333 
	C362.262787,210.110519 362.619141,210.520691 363.637115,211.212860 
	C366.693512,215.899780 371.238831,216.739075 376.311523,215.999374 
	C381.501862,215.242538 386.262115,213.754898 388.666962,208.151047 
	C389.109680,208.847290 389.552399,209.543533 389.907074,211.010117 
	C391.469269,212.343369 392.845978,214.093872 394.645264,214.893890 
	C396.487457,215.712967 398.895142,216.185165 400.767578,215.699600 
	C402.108307,215.351913 403.414673,213.322952 403.933167,211.775040 
	C404.486481,210.123138 404.095764,208.154999 404.739166,206.494858 
	C406.476440,208.057281 408.213715,209.619705 410.283661,211.781677 
	C415.133972,218.281921 421.517944,215.959152 427.710480,214.840042 
	C428.744751,214.653107 430.114655,214.240601 430.829010,214.703934 
	C435.490265,217.727127 439.328094,216.398438 441.761841,210.134964 
	C443.547638,211.331787 445.968170,212.089615 446.791382,213.676208 
	C448.833954,217.612976 452.069916,216.145844 454.562378,215.539642 
	C457.615143,214.797134 456.704773,211.964355 455.924072,209.753616 
	C454.061005,204.478073 452.376404,199.115906 450.101410,194.020126 
	C449.072449,191.715256 446.809814,189.961136 445.087158,187.278214 
	C444.184479,185.336166 443.257172,183.458755 440.080414,185.537018 
	C439.137054,185.578049 438.193695,185.619080 436.568542,185.345795 
	C435.729248,186.123840 434.515503,186.744553 434.111755,187.705582 
	C431.593353,193.699936 429.256104,199.770416 426.361511,206.162277 
	C423.506592,204.586395 420.651672,203.010529 417.563568,201.305923 
	C418.143127,198.496017 419.092682,195.754425 423.928314,197.658005 
	C424.998169,198.079147 427.497375,195.769211 428.822815,194.263092 
	C429.489197,193.505920 429.560608,191.219543 428.920837,190.515564 
	C427.292480,188.723694 425.112244,187.433334 422.711945,185.262787 
	C421.318481,184.890793 419.945435,184.374298 418.527710,184.174057 
	C414.371490,183.586990 410.331268,183.485306 407.438721,188.281036 
M128.954117,137.975693 
	C128.954117,137.975693 128.921036,137.853790 128.153839,138.304779 
	C128.098053,178.938339 128.037720,219.571915 128.033798,260.205475 
	C128.033752,260.758789 128.745422,261.312195 129.651138,262.128326 
	C130.378113,262.746552 131.105087,263.364777 132.256668,264.778625 
	C172.492493,264.796631 212.728333,264.814667 253.674454,264.958923 
	C255.061829,263.287537 256.449188,261.616150 257.983643,259.570251 
	C257.983643,259.570251 257.977051,259.167175 258.774994,258.752747 
	C258.859528,258.265747 259.017914,257.778778 259.018097,257.291748 
	C259.033966,219.946426 259.046814,182.601105 258.997620,145.255859 
	C258.996094,144.097214 258.341705,142.939423 258.012695,141.040573 
	C257.793274,137.957687 256.104248,136.293900 252.993637,135.501114 
	C252.993637,135.501114 252.867676,135.087845 252.745834,134.201630 
	C252.255112,134.128159 251.764420,133.990585 251.273666,133.990387 
	C213.292313,133.975082 175.310959,133.961319 137.329681,134.008621 
	C136.155609,134.010086 134.982330,134.653458 133.127701,134.971573 
	C132.072937,135.590149 131.018158,136.208725 129.436432,137.049408 
	C129.234055,137.364639 129.031677,137.679886 128.954117,137.975693 
M453.126282,189.646454 
	C453.362854,190.416443 453.361267,191.597076 453.872437,191.893494 
	C459.574036,195.199661 458.554779,200.582199 458.642120,205.823914 
	C458.675873,207.850540 460.143829,209.853271 461.692566,212.061890 
	C462.047882,212.374710 462.628815,212.630585 462.724335,213.008987 
	C463.934265,217.801712 467.853729,215.768112 470.583344,215.723114 
	C471.427368,215.709198 472.793762,212.666077 472.925232,210.934296 
	C473.261383,206.505981 473.037292,202.035126 473.037292,197.663406 
	C476.769958,196.327759 478.262115,197.311539 478.023804,200.801910 
	C477.922028,202.292587 478.009003,203.796127 478.009430,205.293823 
	C478.011444,212.846924 480.989990,215.957199 488.254364,215.984406 
	C490.251251,215.991882 492.248932,216.020691 494.244965,215.978928 
	C499.033539,215.878723 500.797028,212.904343 498.851654,208.371078 
	C498.469177,207.479736 498.171539,206.454071 498.199310,205.500977 
	C498.345459,200.483643 498.657837,195.470612 498.752716,190.453064 
	C498.761932,189.965469 497.678223,189.457184 496.870209,188.257751 
	C495.590729,186.527420 494.934967,183.557053 490.857208,185.581543 
	C487.654907,185.603180 484.452606,185.624802 480.538574,185.294525 
	C479.689667,186.190216 478.840729,187.085907 477.313232,188.003113 
	C476.861145,188.023407 476.409058,188.043701 475.431671,187.695602 
	C474.261017,187.065948 473.090332,186.436295 471.024536,185.589096 
	C465.795990,185.664627 460.567474,185.740158 454.694092,185.444672 
	C454.192566,186.332748 453.691040,187.220825 453.086395,188.497192 
	C453.086395,188.497192 453.181549,188.887527 453.126282,189.646454 
z"/>
<path fill="#F699C6" opacity="1.000000" stroke="none" 
	d="
M129.963394,136.827301 
	C131.018158,136.208725 132.072937,135.590149 133.950684,135.013916 
	C162.850510,135.123810 190.927353,135.191360 218.936813,135.576630 
	C214.249771,138.643982 209.760498,141.651505 204.973999,144.071014 
	C200.138000,146.515533 195.012970,148.390518 190.003342,150.488235 
	C187.866562,151.382980 185.723969,152.272812 183.544815,153.055740 
	C176.357590,155.637985 168.671127,157.294037 162.064590,160.922836 
	C151.590347,166.676041 140.903717,171.245377 129.047485,172.537384 
	C129.040192,167.697647 129.054993,163.322662 129.324280,158.629929 
	C129.436722,152.244354 129.294678,146.176498 129.127167,139.731506 
	C129.041473,138.854172 128.981247,138.353973 128.921036,137.853790 
	C128.921036,137.853790 128.954117,137.975693 129.128967,137.840851 
	C129.523666,137.413116 129.743530,137.120209 129.963394,136.827301 
z"/>
<path fill="#B772CC" opacity="1.000000" stroke="none" 
	d="
M257.836578,259.944763 
	C256.449188,261.616150 255.061829,263.287537 252.993973,264.645569 
	C250.325195,264.254974 248.337051,264.115417 246.348557,264.109955 
	C223.232376,264.046356 200.116135,264.002960 177.061005,263.588684 
	C178.298599,262.180298 179.473434,260.240204 180.651855,260.238037 
	C189.264847,260.222107 196.619125,256.509827 204.264404,253.241867 
	C218.446060,247.179916 232.834351,241.595627 247.198853,235.971436 
	C250.539703,234.663361 254.130356,233.993301 257.674011,233.490952 
	C257.728912,241.685333 257.715912,249.418442 257.535400,257.351501 
	C257.524109,258.349213 257.680328,259.146973 257.836578,259.944763 
z"/>
<path fill="#CF7DCB" opacity="1.000000" stroke="none" 
	d="
M131.832062,263.983002 
	C131.105087,263.364777 130.378113,262.746552 129.379639,261.537903 
	C129.090500,253.310211 129.072861,245.672928 129.310257,238.350616 
	C129.711395,241.133301 130.016968,243.604187 129.967575,246.067947 
	C129.885696,250.151230 131.662476,250.557251 134.935150,249.036835 
	C138.940201,247.176147 143.058273,245.560226 147.085739,243.745850 
	C151.457489,241.776367 156.115616,240.193405 160.034363,237.535782 
	C164.166702,234.733276 168.010223,232.848206 173.171341,233.851212 
	C176.050552,234.410751 179.000366,233.843048 178.469269,229.468948 
	C178.384384,228.769745 179.464813,227.929062 180.473297,227.111160 
	C182.920578,227.054123 184.903351,227.095551 186.881180,227.014984 
	C193.254654,226.755371 199.626328,226.450836 206.352295,226.079727 
	C208.145142,224.557068 210.003464,223.349487 210.947815,221.637680 
	C214.249710,215.652359 214.122040,215.594406 219.206039,220.461853 
	C220.104889,221.322403 221.099625,222.082825 222.035629,223.279404 
	C221.902435,228.022385 219.089294,230.027618 215.413834,231.345734 
	C205.752075,234.810623 196.048676,238.168869 186.462952,241.833954 
	C175.179932,246.147980 163.959518,250.634750 152.802734,255.265305 
	C148.527817,257.039551 144.503571,259.417786 140.365097,261.520782 
	C140.449493,261.929749 140.533905,262.338715 140.618317,262.747681 
	C142.437286,262.656464 144.278931,262.352753 146.067780,262.543732 
	C147.411697,262.687164 148.687805,263.466003 149.527176,263.992615 
	C143.317520,264.009827 137.574799,263.996399 131.832062,263.983002 
z"/>
<path fill="#E98EC7" opacity="1.000000" stroke="none" 
	d="
M253.073547,135.925690 
	C256.104248,136.293900 257.793274,137.957687 257.964142,141.893250 
	C257.628754,148.824799 257.341919,154.903671 256.671631,160.997894 
	C245.322556,164.663452 235.302078,170.933762 223.566650,172.580566 
	C221.888153,172.816116 218.644409,174.770218 221.017456,178.386169 
	C219.494537,179.772446 218.092224,180.817215 216.704391,181.880875 
	C214.249817,183.762115 212.451797,183.472351 212.020737,180.186234 
	C211.462738,175.932266 208.665909,174.399963 204.779114,173.646362 
	C204.384125,173.337631 204.134430,173.189697 203.935089,173.033844 
	C203.985229,173.026337 203.995560,173.127197 203.696976,172.832550 
	C191.601578,172.355774 179.804764,172.173676 168.324097,171.724258 
	C173.737473,171.127716 178.836075,170.818298 183.931396,170.462021 
	C187.134415,170.238068 190.358734,170.112778 193.523743,169.622253 
	C195.666412,169.290192 197.841675,168.643097 199.783966,167.691223 
	C201.724350,166.740280 203.249741,164.915955 205.209167,164.035751 
	C209.815796,161.966400 214.565994,160.214447 219.270432,158.365448 
	C228.656448,154.676453 237.954681,150.733353 247.469391,147.411407 
	C256.505035,144.256699 256.606201,144.546494 252.913864,136.088058 
	C252.967026,136.033859 253.073547,135.925690 253.073547,135.925690 
z"/>
<path fill="#444856" opacity="1.000000" stroke="none" 
	d="
M423.152893,185.942291 
	C425.112244,187.433334 427.292480,188.723694 428.920837,190.515564 
	C429.560608,191.219543 429.489197,193.505920 428.822815,194.263092 
	C427.497375,195.769211 424.998169,198.079147 423.928314,197.658005 
	C419.092682,195.754425 418.143127,198.496017 417.563568,201.305923 
	C420.651672,203.010529 423.506592,204.586395 426.789978,206.226349 
	C427.743835,206.536545 428.269226,206.782700 428.816986,207.409882 
	C430.877686,212.240738 432.391022,209.606827 433.800629,207.370270 
	C436.829712,202.564209 441.214874,202.425766 444.473785,206.786423 
	C445.389526,208.011780 447.413086,208.409271 448.928497,209.186493 
	C449.153961,208.777405 449.379425,208.368317 449.604889,207.959244 
	C447.987823,202.762787 446.370758,197.566330 444.723694,192.098450 
	C444.467865,191.552277 444.242065,191.277527 443.920776,190.646637 
	C443.626953,189.580444 443.428650,188.870407 443.700378,188.118042 
	C444.482574,188.036209 444.794708,187.996689 445.106873,187.957153 
	C446.809814,189.961136 449.072449,191.715256 450.101410,194.020126 
	C452.376404,199.115906 454.061005,204.478073 455.924072,209.753616 
	C456.704773,211.964355 457.615143,214.797134 454.562378,215.539642 
	C452.069916,216.145844 448.833954,217.612976 446.791382,213.676208 
	C445.968170,212.089615 443.547638,211.331787 441.761841,210.134964 
	C439.328094,216.398438 435.490265,217.727127 430.829010,214.703934 
	C430.114655,214.240601 428.744751,214.653107 427.710480,214.840042 
	C421.517944,215.959152 415.133972,218.281921 410.153503,210.989685 
	C410.088440,209.543518 410.153503,208.889359 410.637024,208.411255 
	C413.185486,208.759308 415.356812,209.257889 417.431854,208.995255 
	C418.966492,208.801041 420.375671,207.615616 421.840759,206.871765 
	C420.413116,206.292389 419.009644,205.293198 417.553436,205.209290 
	C412.386475,204.911591 410.471283,202.575195 410.894104,196.562195 
	C411.233429,191.736694 413.446899,189.699982 418.388489,190.534821 
	C421.608490,191.078812 422.308380,190.018570 422.006836,186.960236 
	C422.499573,186.445602 422.826233,186.193939 423.152893,185.942291 
z"/>
<path fill="#444856" opacity="1.000000" stroke="none" 
	d="
M497.101837,188.958496 
	C497.678223,189.457184 498.761932,189.965469 498.752716,190.453064 
	C498.657837,195.470612 498.345459,200.483643 498.199310,205.500977 
	C498.171539,206.454071 498.469177,207.479736 498.851654,208.371078 
	C500.797028,212.904343 499.033539,215.878723 494.244965,215.978928 
	C492.248932,216.020691 490.251251,215.991882 488.254364,215.984406 
	C480.989990,215.957199 478.011444,212.846924 478.009430,205.293823 
	C478.009003,203.796127 477.922028,202.292587 478.023804,200.801910 
	C478.262115,197.311539 476.769958,196.327759 473.037292,197.663406 
	C473.037292,202.035126 473.261383,206.505981 472.925232,210.934296 
	C472.793762,212.666077 471.427368,215.709198 470.583344,215.723114 
	C467.853729,215.768112 463.934265,217.801712 462.724335,213.008987 
	C462.628815,212.630585 462.047882,212.374710 461.342163,211.547699 
	C461.044830,210.194855 461.097900,209.356201 461.449158,208.645020 
	C462.166321,208.877762 462.585297,208.983032 463.103607,209.213837 
	C463.202911,209.339401 463.645660,209.403442 463.645660,209.403442 
	C463.645660,209.403442 463.994934,209.099609 464.384094,208.973114 
	C465.175873,207.354904 465.856506,205.876312 465.927582,204.368988 
	C466.121277,200.261597 466.057465,196.142075 466.462219,192.013168 
	C468.242371,191.477432 469.655945,190.955887 471.309875,190.330933 
	C471.707733,190.152435 471.865204,190.077332 472.344360,189.959152 
	C473.763062,189.298706 474.860016,188.681366 475.956970,188.063995 
	C476.409058,188.043701 476.861145,188.023407 477.664398,188.374344 
	C478.589813,190.178467 479.164062,191.611343 479.789429,193.439301 
	C479.813324,194.894913 479.786163,195.955429 479.652954,197.120514 
	C479.417297,197.533051 479.494080,197.787216 479.818176,198.438171 
	C479.835052,201.603928 479.811066,204.319107 479.620300,207.217224 
	C479.707062,207.897430 479.960602,208.394684 480.664185,208.917328 
	C483.091644,208.958984 485.114746,209.243729 487.033752,208.916992 
	C489.003540,208.581650 490.871613,207.648682 492.784180,206.977249 
	C491.005981,206.316483 489.124084,205.841522 487.486847,204.928116 
	C486.434998,204.341309 484.927307,202.943787 485.077240,202.204269 
	C485.314392,201.034454 486.591461,199.687439 487.757477,199.195999 
	C489.098724,198.630692 490.797882,198.914673 492.562714,198.817642 
	C491.139130,195.296478 491.139130,195.296478 485.853882,194.851746 
	C485.535309,194.358490 485.277191,194.156311 484.921936,193.681351 
	C484.894897,192.875259 484.908875,192.413605 485.213104,191.915222 
	C486.020782,191.376129 486.538208,190.873764 487.455688,190.315323 
	C489.604492,189.847458 491.353271,189.435669 493.500946,189.014145 
	C494.967194,188.989120 496.034515,188.973816 497.101837,188.958496 
z"/>
<path fill="#444856" opacity="1.000000" stroke="none" 
	d="
M360.002441,215.120987 
	C353.584229,218.119415 349.351868,214.786865 345.953766,210.260498 
	C344.888458,212.200073 344.297485,215.045593 342.753479,215.724899 
	C339.364258,217.215988 336.574188,215.174484 334.136658,211.876434 
	C333.490753,211.268951 333.233551,211.112137 332.931793,211.028427 
	C332.931793,211.028427 332.956573,211.088135 333.026733,210.783264 
	C333.721710,209.991333 334.346558,209.504257 335.403442,209.003143 
	C336.654144,207.847839 337.987549,206.789108 338.186401,205.548508 
	C338.628967,202.787903 338.503876,199.936325 338.911865,197.083069 
	C339.827362,197.019104 340.441193,196.993912 341.280762,197.221283 
	C343.346283,200.632141 344.919342,203.998856 347.149414,206.852005 
	C348.119080,208.092575 350.429108,208.690521 352.150757,208.731873 
	C352.806458,208.747620 354.088104,206.395264 354.110199,205.105469 
	C354.221130,198.632309 354.009491,192.153610 353.911163,185.676865 
	C354.419128,185.232239 354.927124,184.787628 355.435089,184.343002 
	C355.982880,185.364471 356.530670,186.385941 357.489716,187.683243 
	C358.687866,189.261490 360.131165,190.552643 360.153748,191.868164 
	C360.286713,199.615967 360.088867,207.369431 360.002441,215.120987 
z"/>
<path fill="#B076BF" opacity="1.000000" stroke="none" 
	d="
M364.416260,185.658203 
	C367.334595,185.657333 370.252930,185.656479 373.798157,185.765778 
	C374.733185,185.950317 374.992920,185.869293 375.204224,185.632874 
	C377.177612,186.450424 379.151001,187.267975 381.109253,188.810822 
	C381.200317,190.345032 381.110931,191.246170 381.442169,191.949051 
	C386.300262,202.257690 379.607941,209.645386 368.018951,209.937073 
	C365.210815,210.007751 364.103271,208.813934 364.154999,206.097549 
	C364.284729,199.285248 364.334442,192.471420 364.416260,185.658203 
M376.870056,192.847137 
	C374.661377,191.780777 372.452698,190.714432 369.009399,189.052002 
	C369.009399,194.258789 369.119965,197.861008 368.979584,201.453430 
	C368.826721,205.365128 371.016846,205.510834 373.795441,204.594574 
	C377.594025,203.341949 378.751801,199.495346 376.870056,192.847137 
z"/>
<path fill="#444856" opacity="1.000000" stroke="none" 
	d="
M364.079376,185.450745 
	C364.334442,192.471420 364.284729,199.285248 364.154999,206.097549 
	C364.103271,208.813934 365.210815,210.007751 368.018951,209.937073 
	C379.607941,209.645386 386.300262,202.257690 381.442169,191.949051 
	C381.110931,191.246170 381.200317,190.345032 381.258118,189.151031 
	C383.549835,190.618698 385.677490,192.471405 387.918518,195.051758 
	C388.034302,199.841965 388.036743,203.904526 388.039185,207.967072 
	C386.262115,213.754898 381.501862,215.242538 376.311523,215.999374 
	C371.238831,216.739075 366.693512,215.899780 363.294128,210.781693 
	C362.616028,209.923889 362.280884,209.497253 361.945770,209.070618 
	C361.945770,209.070618 361.956543,209.011124 362.081390,208.652832 
	C362.275238,207.499878 362.344238,206.705185 362.587036,205.673676 
	C362.648132,204.319412 362.535370,203.201950 362.355957,201.642426 
	C362.328430,199.118057 362.367554,197.035751 362.518616,194.862915 
	C362.766052,194.468826 362.690308,194.228256 362.340454,193.700195 
	C362.316650,192.878510 362.355774,192.407303 362.508362,191.851410 
	C362.760010,191.467758 362.685730,191.232697 362.334747,190.636383 
	C362.177673,188.784622 362.084869,187.358002 361.992035,185.931366 
	C361.992035,185.931366 361.956268,185.980103 362.192322,185.890137 
	C362.715210,185.619751 362.898743,185.364899 362.979004,185.035629 
	C363.233490,185.104858 363.488007,185.174072 364.079376,185.450745 
z"/>
<path fill="#B076BF" opacity="1.000000" stroke="none" 
	d="
M353.556427,185.641769 
	C354.009491,192.153610 354.221130,198.632309 354.110199,205.105469 
	C354.088104,206.395264 352.806458,208.747620 352.150757,208.731873 
	C350.429108,208.690521 348.119080,208.092575 347.149414,206.852005 
	C344.919342,203.998856 343.346283,200.632141 341.224731,196.897736 
	C340.267944,195.405060 339.592957,194.488510 338.917969,193.571960 
	C338.676483,193.695190 338.435028,193.818436 338.193542,193.941666 
	C338.332397,195.001724 338.471283,196.061768 338.610168,197.121826 
	C338.503876,199.936325 338.628967,202.787903 338.186401,205.548508 
	C337.987549,206.789108 336.654144,207.847839 335.229645,208.625641 
	C334.412842,202.841599 334.201935,197.421021 334.024780,191.627838 
	C334.018921,190.509277 333.979340,189.763336 334.025085,188.728516 
	C334.515045,187.541718 334.919647,186.643768 335.324280,185.745834 
	C336.607117,185.723160 337.889954,185.700500 339.609589,186.044464 
	C343.037598,191.383972 346.028809,196.356873 349.020020,201.329758 
	C349.467834,201.201797 349.915680,201.073822 350.363495,200.945862 
	C350.363495,195.883453 350.363495,190.821060 350.363495,185.758652 
	C351.309570,185.707993 352.255615,185.657333 353.556427,185.641769 
z"/>
<path fill="#444856" opacity="1.000000" stroke="none" 
	d="
M307.211456,195.130981 
	C306.392029,196.232468 305.572632,197.333954 304.334534,198.998230 
	C304.442719,199.158676 305.298859,199.973663 305.598175,200.957962 
	C306.489532,203.889130 308.385284,207.251999 307.632721,209.772690 
	C306.512512,213.524963 303.229340,216.431335 298.533875,215.956100 
	C294.824371,215.580658 290.204865,217.125229 288.819031,211.025146 
	C288.979980,209.899475 288.993591,209.423279 289.452087,208.974518 
	C290.886139,209.068283 291.874603,209.176102 292.864655,209.193604 
	C296.682892,209.261108 300.443817,208.842361 301.596741,204.420517 
	C302.745514,200.014572 299.729523,197.864136 296.348328,195.982742 
	C294.755127,195.096237 293.428558,193.730591 291.981140,192.582062 
	C292.092499,192.082474 292.203857,191.582870 292.315216,191.083282 
	C294.081390,190.884476 295.946686,190.226990 297.593018,190.582718 
	C300.980804,191.314728 301.349060,189.731766 300.950623,186.824982 
	C300.983093,186.350006 301.001831,186.160431 301.020538,185.970856 
	C302.091736,186.511002 303.162903,187.051132 304.604126,188.051575 
	C305.680450,190.380981 306.386719,192.250092 307.093018,194.119217 
	C307.093018,194.119217 307.031799,194.066620 306.890564,194.151947 
	C306.903412,194.535156 307.057434,194.833069 307.211456,195.130981 
z"/>
<path fill="#444856" opacity="1.000000" stroke="none" 
	d="
M389.909546,185.073181 
	C390.777954,185.123978 391.646332,185.174759 392.724182,185.743973 
	C392.626251,193.129471 392.253357,199.995224 392.113434,206.865723 
	C392.099548,207.547592 393.628448,208.916641 394.228119,208.806442 
	C395.204956,208.626953 396.773102,207.478348 396.762177,206.758881 
	C396.655151,199.705414 396.272736,192.656143 395.968536,185.605652 
	C396.832397,185.388138 397.696259,185.170624 398.560120,184.953125 
	C398.126953,188.644028 401.980316,187.895752 403.665466,190.116089 
	C403.590515,191.578293 403.270691,192.570908 402.929657,193.629456 
	C403.875214,194.099670 404.834503,194.576721 405.815308,195.474655 
	C405.839325,197.582397 405.841827,199.269241 405.506897,200.860611 
	C404.456085,199.350983 403.742706,197.936829 403.029327,196.522675 
	C402.457184,196.725525 401.885040,196.928375 401.312897,197.131226 
	C402.247650,200.195786 403.182404,203.260345 404.117188,206.324905 
	C404.095764,208.154999 404.486481,210.123138 403.933167,211.775040 
	C403.414673,213.322952 402.108307,215.351913 400.767578,215.699600 
	C398.895142,216.185165 396.487457,215.712967 394.645264,214.893890 
	C392.845978,214.093872 391.469269,212.343369 389.968933,210.141724 
	C389.990387,201.206604 389.949982,193.139893 389.909546,185.073181 
z"/>
<path fill="#966CC0" opacity="1.000000" stroke="none" 
	d="
M443.230316,188.160355 
	C443.428650,188.870407 443.626953,189.580444 443.969604,190.908386 
	C444.327179,191.807480 444.540436,192.088669 444.753723,192.369873 
	C446.370758,197.566330 447.987823,202.762787 449.604889,207.959244 
	C449.379425,208.368317 449.153961,208.777405 448.928497,209.186493 
	C447.413086,208.409271 445.389526,208.011780 444.473785,206.786423 
	C441.214874,202.425766 436.829712,202.564209 433.800629,207.370270 
	C432.391022,209.606827 430.877686,212.240738 429.019440,207.093597 
	C431.883118,199.484207 434.566711,192.572144 437.250336,185.660095 
	C438.193695,185.619080 439.137054,185.578049 440.526611,185.836060 
	C441.725281,186.810181 442.477814,187.485260 443.230316,188.160355 
M439.899292,192.356888 
	C438.949371,194.345566 437.999451,196.334229 437.049530,198.322906 
	C438.433777,198.897827 439.818054,199.472763 442.556610,200.610168 
	C441.410553,196.968399 440.782471,194.972565 439.899292,192.356888 
z"/>
<path fill="#966CC0" opacity="1.000000" stroke="none" 
	d="
M485.970520,195.071182 
	C491.139130,195.296478 491.139130,195.296478 492.562714,198.817642 
	C490.797882,198.914673 489.098724,198.630692 487.757477,199.195999 
	C486.591461,199.687439 485.314392,201.034454 485.077240,202.204269 
	C484.927307,202.943787 486.434998,204.341309 487.486847,204.928116 
	C489.124084,205.841522 491.005981,206.316483 492.784180,206.977249 
	C490.871613,207.648682 489.003540,208.581650 487.033752,208.916992 
	C485.114746,209.243729 483.091644,208.958984 480.609375,208.603760 
	C479.998718,207.854645 479.892914,207.444473 479.787079,207.034286 
	C479.811066,204.319107 479.835052,201.603928 479.865387,198.194458 
	C479.871735,197.500183 479.758972,197.015945 479.758972,197.015945 
	C479.786163,195.955429 479.813324,194.894913 479.878571,193.044739 
	C480.361206,190.052200 480.805756,187.849319 481.250305,185.646439 
	C484.452606,185.624802 487.654907,185.603180 491.388000,185.910614 
	C492.313232,187.167740 492.707611,188.095810 493.101990,189.023865 
	C491.353271,189.435669 489.604492,189.847458 487.140564,190.254608 
	C485.924530,190.817307 485.423676,191.384628 484.922852,191.951935 
	C484.908875,192.413605 484.894897,192.875259 484.991425,193.935516 
	C485.391449,194.713120 485.680969,194.892151 485.970520,195.071182 
z"/>
<path fill="#444856" opacity="1.000000" stroke="none" 
	d="
M333.939758,189.017380 
	C333.979340,189.763336 334.018921,190.509277 333.717651,191.778351 
	C332.267639,193.921661 331.158539,195.541855 330.049438,197.162048 
	C328.121246,202.466431 325.026917,207.270599 325.660004,213.508133 
	C326.037842,217.230316 321.998260,215.646347 319.803040,215.953873 
	C317.615509,216.260330 315.683777,216.009125 316.637390,212.875397 
	C316.689819,212.703079 315.970795,212.296005 315.289612,211.529037 
	C314.994904,210.308578 315.021423,209.557297 315.448364,208.878387 
	C317.123962,208.659561 318.399170,208.368378 319.907227,207.931976 
	C320.029388,206.843079 319.918732,205.899399 319.783813,204.583908 
	C319.791382,203.468338 319.823151,202.724579 320.138275,201.846252 
	C320.504883,200.783859 320.588165,199.856033 320.753601,198.643021 
	C321.140961,197.856842 321.446167,197.355850 322.049927,196.851196 
	C322.491638,196.212097 322.634766,195.576691 322.851746,194.657166 
	C323.251099,193.896317 323.576599,193.419540 324.136749,192.799606 
	C324.515778,192.326813 324.660187,191.997192 324.827087,191.492218 
	C324.849609,191.316864 324.996460,190.995224 325.210449,190.819550 
	C325.542969,190.299759 325.661469,189.955612 325.816589,189.343567 
	C325.990204,188.743423 326.127228,188.411163 326.636292,188.126968 
	C329.318817,188.455826 331.629272,188.736603 333.939758,189.017380 
z"/>
<path fill="#966CC0" opacity="1.000000" stroke="none" 
	d="
M466.095673,192.027374 
	C466.057465,196.142075 466.121277,200.261597 465.927582,204.368988 
	C465.856506,205.876312 465.175873,207.354904 464.137024,208.927948 
	C463.335266,209.035629 463.169800,209.061966 463.004303,209.088287 
	C462.585297,208.983032 462.166321,208.877762 461.465393,208.220032 
	C461.169128,203.540085 460.991882,199.404633 461.192627,195.287643 
	C461.349792,192.064362 460.337921,190.280136 456.929260,190.032349 
	C455.658997,189.940002 454.429596,189.285629 453.181549,188.887527 
	C453.181549,188.887527 453.086395,188.497192 453.433838,188.265411 
	C454.300507,187.294312 454.819733,186.554993 455.338928,185.815689 
	C460.567474,185.740158 465.795990,185.664627 471.427643,186.039795 
	C471.894714,187.661087 471.958710,188.831665 472.022675,190.002243 
	C471.865204,190.077332 471.707733,190.152435 470.948853,190.221863 
	C468.930206,190.819916 467.512939,191.423645 466.095673,192.027374 
z"/>
<path fill="#B076BF" opacity="1.000000" stroke="none" 
	d="
M319.674347,208.077179 
	C318.399170,208.368378 317.123962,208.659561 315.437408,208.448242 
	C316.503174,199.905746 310.815582,194.120361 307.911377,187.072998 
	C315.003235,184.618134 313.534790,193.052460 317.947113,193.963913 
	C319.400330,191.234497 320.857666,188.497360 322.315002,185.760223 
	C323.207428,185.720367 324.099854,185.680496 325.395996,185.973114 
	C325.954590,186.896698 326.109436,187.487808 326.264252,188.078918 
	C326.127228,188.411163 325.990204,188.743423 325.610596,189.527618 
	C325.244141,190.318130 325.120300,190.656677 324.996460,190.995224 
	C324.996460,190.995224 324.849609,191.316864 324.613007,191.655991 
	C324.218292,192.311005 324.060181,192.626892 323.902100,192.942780 
	C323.576599,193.419540 323.251099,193.896317 322.645508,194.844025 
	C322.160767,195.828262 321.956055,196.341553 321.751373,196.854858 
	C321.446167,197.355850 321.140961,197.856842 320.537506,198.888550 
	C320.111145,200.273102 319.983063,201.126953 319.854950,201.980804 
	C319.823151,202.724579 319.791382,203.468338 319.621002,204.868286 
	C319.546387,206.375366 319.610382,207.226273 319.674347,208.077179 
z"/>
<path fill="#5B526B" opacity="1.000000" stroke="none" 
	d="
M289.007202,208.947098 
	C288.993591,209.423279 288.979980,209.899475 288.972778,210.733490 
	C287.293213,209.701874 284.562286,208.542267 284.192993,206.863205 
	C283.758179,204.886276 285.370117,202.459183 286.322815,199.524002 
	C286.559418,195.749130 285.335571,190.069931 287.548828,186.555084 
	C290.124573,182.464584 295.924316,183.268372 300.794250,185.657837 
	C301.001831,186.160431 300.983093,186.350006 300.556854,186.777649 
	C298.698730,186.716736 297.034729,185.816559 295.840668,186.240356 
	C293.115723,187.207489 289.522186,188.186859 288.285889,190.321869 
	C286.351105,193.663193 288.320007,196.967026 291.880707,198.847336 
	C292.902039,199.386658 294.095520,199.749191 294.894287,200.519974 
	C295.739899,201.335953 296.209259,202.541824 296.842926,203.577408 
	C295.751404,204.133072 294.705017,205.011520 293.558228,205.171707 
	C291.649750,205.438354 289.676941,205.244400 286.747711,205.244400 
	C287.695953,206.798309 288.351562,207.872696 289.007202,208.947098 
z"/>
<path fill="#EAC7E3" opacity="1.000000" stroke="none" 
	d="
M257.055084,160.982559 
	C257.341919,154.903671 257.628754,148.824799 257.953644,142.263580 
	C258.341705,142.939423 258.996094,144.097214 258.997620,145.255859 
	C259.046814,182.601105 259.033966,219.946426 259.018097,257.291748 
	C259.017914,257.778778 258.859528,258.265747 258.344727,258.620178 
	C257.843964,258.042236 257.773438,257.596893 257.702911,257.151550 
	C257.715912,249.418442 257.728912,241.685333 257.762451,233.026642 
	C257.591370,226.028152 257.399780,219.955276 257.209595,213.478622 
	C257.352722,208.395645 257.494476,203.716446 257.704102,198.572174 
	C257.734589,192.409653 257.697174,186.712189 257.725586,180.551514 
	C257.545959,173.719711 257.300507,167.351135 257.055084,160.982559 
z"/>
<path fill="#EAC7E3" opacity="1.000000" stroke="none" 
	d="
M219.004211,135.258896 
	C190.927353,135.191360 162.850510,135.123810 134.291168,135.026917 
	C134.982330,134.653458 136.155609,134.010086 137.329681,134.008621 
	C175.310959,133.961319 213.292313,133.975082 251.273666,133.990387 
	C251.764420,133.990585 252.255112,134.128159 252.622894,134.753418 
	C252.271881,135.491058 252.108215,135.722458 251.575012,136.012421 
	C249.405029,136.016876 247.668976,136.008331 245.838074,135.825104 
	C245.581451,135.420242 245.360672,135.290207 244.609314,135.216980 
	C235.759903,135.202042 227.382050,135.230469 219.004211,135.258896 
z"/>
<path fill="#EAC7E3" opacity="1.000000" stroke="none" 
	d="
M129.055206,238.035629 
	C129.072861,245.672928 129.090500,253.310211 129.116516,261.406525 
	C128.745422,261.312195 128.033752,260.758789 128.033798,260.205475 
	C128.037720,219.571915 128.098053,178.938339 128.537445,138.079285 
	C128.981247,138.353973 129.041473,138.854172 129.084229,140.185486 
	C129.067780,146.993622 129.068787,152.970642 129.069794,158.947662 
	C129.054993,163.322662 129.040192,167.697647 129.023178,173.005463 
	C129.029709,185.621246 129.038437,197.304230 129.025421,209.456360 
	C129.018188,215.626129 129.032700,221.326782 129.025497,227.483551 
	C129.020935,231.305008 129.038071,234.670319 129.055206,238.035629 
z"/>
<path fill="#EAC7E3" opacity="1.000000" stroke="none" 
	d="
M132.044373,264.380798 
	C137.574799,263.996399 143.317520,264.009827 149.996033,264.020782 
	C159.621170,263.996948 168.310547,263.975586 176.999908,263.954193 
	C200.116135,264.002960 223.232376,264.046356 246.348557,264.109955 
	C248.337051,264.115417 250.325195,264.254974 252.638824,264.582458 
	C212.728333,264.814667 172.492493,264.796631 132.044373,264.380798 
z"/>
<path fill="#5B526B" opacity="1.000000" stroke="none" 
	d="
M322.016663,185.547943 
	C320.857666,188.497360 319.400330,191.234497 317.947113,193.963913 
	C313.534790,193.052460 315.003235,184.618134 307.911377,187.072998 
	C310.815582,194.120361 316.503174,199.905746 315.036987,208.375854 
	C315.021423,209.557297 314.994904,210.308578 314.957184,211.434143 
	C314.332397,209.644455 313.956726,207.374878 313.053192,205.339630 
	C311.426178,201.674759 309.482910,198.150330 307.382385,194.343216 
	C306.386719,192.250092 305.680450,190.380981 304.900970,188.132965 
	C305.794525,184.790833 310.487885,183.149231 313.229340,184.931885 
	C314.457123,185.730286 315.472076,186.855942 316.568542,187.819855 
	C318.310425,186.979599 320.014404,186.157639 322.016663,185.547943 
z"/>
<path fill="#966CC0" opacity="1.000000" stroke="none" 
	d="
M395.637390,185.572876 
	C396.272736,192.656143 396.655151,199.705414 396.762177,206.758881 
	C396.773102,207.478348 395.204956,208.626953 394.228119,208.806442 
	C393.628448,208.916641 392.099548,207.547592 392.113434,206.865723 
	C392.253357,199.995224 392.626251,193.129471 393.123962,185.921417 
	C393.978241,185.566986 394.642242,185.553528 395.637390,185.572876 
z"/>
<path fill="#5B526B" opacity="1.000000" stroke="none" 
	d="
M350.035400,185.556152 
	C350.363495,190.821060 350.363495,195.883453 350.363495,200.945862 
	C349.915680,201.073822 349.467834,201.201797 349.020020,201.329758 
	C346.028809,196.356873 343.037598,191.383972 339.989868,186.110596 
	C340.811310,185.952530 341.903046,185.816742 342.523712,186.293854 
	C343.916077,187.364105 345.074310,188.738892 346.385895,189.473282 
	C350.429657,189.862503 344.747070,183.886078 350.035400,185.556152 
z"/>
<path fill="#5B526B" opacity="1.000000" stroke="none" 
	d="
M453.153931,189.266998 
	C454.429596,189.285629 455.658997,189.940002 456.929260,190.032349 
	C460.337921,190.280136 461.349792,192.064362 461.192627,195.287643 
	C460.991882,199.404633 461.169128,203.540085 461.167206,208.092560 
	C461.097900,209.356201 461.044830,210.194855 460.975098,211.450195 
	C460.143829,209.853271 458.675873,207.850540 458.642120,205.823914 
	C458.554779,200.582199 459.574036,195.199661 453.872437,191.893494 
	C453.361267,191.597076 453.362854,190.416443 453.153931,189.266998 
z"/>
<path fill="#EAC7E3" opacity="1.000000" stroke="none" 
	d="
M362.413208,205.910507 
	C362.344238,206.705185 362.275238,207.499878 362.096802,208.678833 
	C361.563812,210.961868 361.140228,212.860596 360.359558,214.940155 
	C360.088867,207.369431 360.286713,199.615967 360.153748,191.868164 
	C360.131165,190.552643 358.687866,189.261490 357.492249,188.072479 
	C358.483276,187.526657 359.883057,186.867432 361.637421,186.069794 
	C362.084869,187.358002 362.177673,188.784622 362.263611,190.854401 
	C362.256744,191.497559 362.394867,191.936111 362.394897,191.936111 
	C362.355774,192.407303 362.316650,192.878510 362.273376,193.925934 
	C362.269165,194.502151 362.406677,194.953461 362.406677,194.953461 
	C362.367554,197.035751 362.328430,199.118057 362.258942,202.017609 
	C362.290100,203.860092 362.351654,204.885300 362.413208,205.910507 
z"/>
<path fill="#5B526B" opacity="1.000000" stroke="none" 
	d="
M436.909424,185.502945 
	C434.566711,192.572144 431.883118,199.484207 428.997040,206.712555 
	C428.269226,206.782700 427.743835,206.536545 427.038635,206.053040 
	C429.256104,199.770416 431.593353,193.699936 434.111755,187.705582 
	C434.515503,186.744553 435.729248,186.123840 436.909424,185.502945 
z"/>
<path fill="#5B526B" opacity="1.000000" stroke="none" 
	d="
M330.377197,197.285187 
	C331.158539,195.541855 332.267639,193.921661 333.683899,192.150955 
	C334.201935,197.421021 334.412842,202.841599 334.797546,208.639679 
	C334.346558,209.504257 333.721710,209.991333 332.995178,210.790283 
	C332.334564,207.507416 331.779724,203.912033 331.214142,200.318344 
	C331.061066,199.345718 330.875549,198.378204 330.377197,197.285187 
z"/>
<path fill="#5B526B" opacity="1.000000" stroke="none" 
	d="
M404.428162,206.409882 
	C403.182404,203.260345 402.247650,200.195786 401.312897,197.131226 
	C401.885040,196.928375 402.457184,196.725525 403.029327,196.522675 
	C403.742706,197.936829 404.456085,199.350983 405.626038,201.195999 
	C407.461243,203.829666 408.839905,206.032440 410.218567,208.235214 
	C410.153503,208.889359 410.088440,209.543518 409.987183,210.689911 
	C408.213715,209.619705 406.476440,208.057281 404.428162,206.409882 
z"/>
<path fill="#5B526B" opacity="1.000000" stroke="none" 
	d="
M422.932434,185.602539 
	C422.826233,186.193939 422.499573,186.445602 421.621552,186.876602 
	C416.652588,185.346191 412.558655,186.036270 408.562561,188.551147 
	C408.391602,188.382690 408.050201,188.045288 408.050201,188.045288 
	C410.331268,183.485306 414.371490,183.586990 418.527710,184.174057 
	C419.945435,184.374298 421.318481,184.890793 422.932434,185.602539 
z"/>
<path fill="#EAC7E3" opacity="1.000000" stroke="none" 
	d="
M389.529724,185.246796 
	C389.949982,193.139893 389.990387,201.206604 390.012939,209.756531 
	C389.552399,209.543533 389.109680,208.847290 388.353088,208.059052 
	C388.036743,203.904526 388.034302,199.841965 388.028259,195.365753 
	C388.399719,191.774841 388.774811,188.597626 389.529724,185.246796 
z"/>
<path fill="#5B526B" opacity="1.000000" stroke="none" 
	d="
M326.636292,188.126984 
	C326.109436,187.487808 325.954590,186.896698 325.730011,186.008911 
	C328.659790,186.163712 331.614227,185.475555 334.957764,185.552338 
	C334.919647,186.643768 334.515045,187.541718 334.025085,188.728516 
	C331.629272,188.736603 329.318817,188.455826 326.636292,188.126984 
z"/>
<path fill="#5B526B" opacity="1.000000" stroke="none" 
	d="
M405.793793,195.053772 
	C404.834503,194.576721 403.875214,194.099670 402.929657,193.629456 
	C403.270691,192.570908 403.590515,191.578293 403.949219,190.267029 
	C405.138306,189.392578 406.288513,188.836807 407.744446,188.163162 
	C408.050201,188.045288 408.391602,188.382690 408.369171,188.824921 
	C407.495758,191.196045 406.644775,193.124908 405.793793,195.053772 
z"/>
<path fill="#5B526B" opacity="1.000000" stroke="none" 
	d="
M480.894440,185.470490 
	C480.805756,187.849319 480.361206,190.052200 479.827515,192.649658 
	C479.164062,191.611343 478.589813,190.178467 478.003662,188.363586 
	C478.840729,187.085907 479.689667,186.190216 480.894440,185.470490 
z"/>
<path fill="#5B526B" opacity="1.000000" stroke="none" 
	d="
M472.344360,189.959152 
	C471.958710,188.831665 471.894714,187.661087 471.875214,186.148575 
	C473.090332,186.436295 474.261017,187.065948 475.694336,187.879807 
	C474.860016,188.681366 473.763062,189.298706 472.344360,189.959152 
z"/>
<path fill="#5B526B" opacity="1.000000" stroke="none" 
	d="
M493.500916,189.014160 
	C492.707611,188.095810 492.313232,187.167740 491.820892,185.954193 
	C494.934967,183.557053 495.590729,186.527420 496.986023,188.608124 
	C496.034515,188.973816 494.967194,188.989120 493.500916,189.014160 
z"/>
<path fill="#5B526B" opacity="1.000000" stroke="none" 
	d="
M443.700378,188.118042 
	C442.477814,187.485260 441.725281,186.810181 440.878296,185.886627 
	C443.257172,183.458755 444.184479,185.336166 445.097015,187.617676 
	C444.794708,187.996689 444.482574,188.036209 443.700378,188.118042 
z"/>
<path fill="#5B526B" opacity="1.000000" stroke="none" 
	d="
M455.016510,185.630188 
	C454.819733,186.554993 454.300507,187.294312 453.485413,188.071259 
	C453.691040,187.220825 454.192566,186.332748 455.016510,185.630188 
z"/>
<path fill="#CF7DCB" opacity="1.000000" stroke="none" 
	d="
M257.535400,257.351501 
	C257.773438,257.596893 257.843964,258.042236 257.945770,258.827393 
	C257.977051,259.167175 257.983643,259.570251 257.910095,259.757507 
	C257.680328,259.146973 257.524109,258.349213 257.535400,257.351501 
z"/>
<path fill="#444856" opacity="1.000000" stroke="none" 
	d="
M375.147491,185.390594 
	C374.992920,185.869293 374.733185,185.950317 374.246307,185.760529 
	C374.408661,185.479523 374.749725,185.313904 375.147491,185.390594 
z"/>
<path fill="#5B526B" opacity="1.000000" stroke="none" 
	d="
M361.926086,209.385468 
	C362.280884,209.497253 362.616028,209.923889 362.963318,210.640701 
	C362.619141,210.520691 362.262787,210.110519 361.926086,209.385468 
z"/>
<path fill="#5B526B" opacity="1.000000" stroke="none" 
	d="
M362.710876,185.032318 
	C362.898743,185.364899 362.715210,185.619751 362.195496,185.859894 
	C362.122681,185.622726 362.282715,185.325867 362.710876,185.032318 
z"/>
<path fill="#EAC7E3" opacity="1.000000" stroke="none" 
	d="
M129.699921,136.938354 
	C129.743530,137.120209 129.523666,137.413116 129.066559,137.850586 
	C129.031677,137.679886 129.234055,137.364639 129.699921,136.938354 
z"/>
<path fill="#E98EC7" opacity="1.000000" stroke="none" 
	d="
M252.008926,135.999420 
	C252.108215,135.722458 252.271881,135.491058 252.683807,135.196533 
	C252.867676,135.087845 252.993637,135.501114 253.033600,135.713409 
	C253.073547,135.925690 252.967026,136.033859 252.702789,136.042404 
	C252.438568,136.050949 252.008926,135.999420 252.008926,135.999420 
z"/>
<path fill="#5B526B" opacity="1.000000" stroke="none" 
	d="
M333.011078,211.262360 
	C333.233551,211.112137 333.490753,211.268951 333.821350,211.693832 
	C333.568909,211.947174 333.285919,211.816330 333.011078,211.262360 
z"/>
<path fill="#5B526B" opacity="1.000000" stroke="none" 
	d="
M307.401306,194.840881 
	C307.057434,194.833069 306.903412,194.535156 306.930115,194.143921 
	C307.270966,194.217316 307.431061,194.384033 307.401306,194.840881 
z"/>
<path fill="#F093C6" opacity="1.000000" stroke="none" 
	d="
M251.575012,136.012421 
	C252.008926,135.999420 252.438568,136.050949 252.649628,136.096603 
	C256.606201,144.546494 256.505035,144.256699 247.469391,147.411407 
	C237.954681,150.733353 228.656448,154.676453 219.270432,158.365448 
	C214.565994,160.214447 209.815796,161.966400 205.209167,164.035751 
	C203.249741,164.915955 201.724350,166.740280 199.783966,167.691223 
	C197.841675,168.643097 195.666412,169.290192 193.523743,169.622253 
	C190.358734,170.112778 187.134415,170.238068 183.931396,170.462021 
	C178.836075,170.818298 173.737473,171.127716 168.030777,171.773804 
	C166.962753,172.430634 166.504211,172.770584 166.038849,173.073730 
	C166.032028,173.036911 166.105667,173.050507 165.915176,173.154663 
	C165.451050,173.377487 165.233856,173.562454 164.700012,173.897949 
	C161.923248,175.665741 159.519592,177.349258 156.868362,179.208588 
	C156.361755,179.928253 156.102722,180.472092 155.497849,181.126587 
	C154.205017,185.863297 151.661163,188.984146 146.899841,190.047653 
	C145.621536,190.333191 144.374176,190.762878 143.091644,191.023010 
	C130.788773,193.518539 129.998901,194.472916 129.993927,206.991394 
	C129.993652,207.653610 129.993088,208.315811 129.756302,208.980133 
	C129.519928,208.982224 129.047180,208.987213 129.047180,208.987213 
	C129.038437,197.304230 129.029709,185.621246 129.045288,173.470200 
	C140.903717,171.245377 151.590347,166.676041 162.064590,160.922836 
	C168.671127,157.294037 176.357590,155.637985 183.544815,153.055740 
	C185.723969,152.272812 187.866562,151.382980 190.003342,150.488235 
	C195.012970,148.390518 200.138000,146.515533 204.973999,144.071014 
	C209.760498,141.651505 214.249771,138.643982 218.936813,135.576630 
	C227.382050,135.230469 235.759903,135.202042 244.722275,135.368073 
	C245.486938,135.749146 245.695648,135.894882 245.932907,135.999771 
	C247.668976,136.008331 249.405029,136.016876 251.575012,136.012421 
z"/>
<path fill="#F093C6" opacity="1.000000" stroke="none" 
	d="
M129.324280,158.629929 
	C129.068787,152.970642 129.067780,146.993622 129.109711,140.562622 
	C129.294678,146.176498 129.436722,152.244354 129.324280,158.629929 
z"/>
<path fill="#C677CC" opacity="1.000000" stroke="none" 
	d="
M177.061005,263.588684 
	C168.310547,263.975586 159.621170,263.996948 150.462952,263.990173 
	C148.687805,263.466003 147.411697,262.687164 146.067780,262.543732 
	C144.278931,262.352753 142.437286,262.656464 140.618317,262.747681 
	C140.533905,262.338715 140.449493,261.929749 140.365097,261.520782 
	C144.503571,259.417786 148.527817,257.039551 152.802734,255.265305 
	C163.959518,250.634750 175.179932,246.147980 186.462952,241.833954 
	C196.048676,238.168869 205.752075,234.810623 215.413834,231.345734 
	C219.089294,230.027618 221.902435,228.022385 222.431763,223.331238 
	C224.955002,222.329956 227.067673,221.666779 229.535248,221.019958 
	C235.335342,223.687256 235.335342,223.687256 235.866364,215.075607 
	C237.842651,217.535217 239.160965,219.175949 239.840042,220.021088 
	C245.901718,217.878632 251.554977,215.880508 257.208221,213.882385 
	C257.399780,219.955276 257.591370,226.028152 257.694519,232.565369 
	C254.130356,233.993301 250.539703,234.663361 247.198853,235.971436 
	C232.834351,241.595627 218.446060,247.179916 204.264404,253.241867 
	C196.619125,256.509827 189.264847,260.222107 180.651855,260.238037 
	C179.473434,260.240204 178.298599,262.180298 177.061005,263.588684 
z"/>
<path fill="#D982C9" opacity="1.000000" stroke="none" 
	d="
M129.310272,238.350616 
	C129.038071,234.670319 129.020935,231.305008 129.275711,227.780289 
	C129.890549,229.980148 130.233475,232.339432 130.628235,235.055252 
	C135.455307,232.687103 139.590637,230.257126 144.020340,228.627060 
	C146.943054,227.551529 148.072708,226.226166 147.332062,223.270859 
	C147.299316,223.140244 147.744415,222.889862 148.061859,222.612274 
	C148.839737,223.743774 149.601562,224.851913 151.025101,226.922592 
	C152.963623,224.591278 154.502808,222.740234 156.352814,221.023651 
	C158.774963,222.829514 160.886292,224.500916 163.339264,226.405609 
	C169.122772,226.810532 174.564651,226.982162 180.006516,227.153778 
	C179.464813,227.929062 178.384384,228.769745 178.469269,229.468948 
	C179.000366,233.843048 176.050552,234.410751 173.171341,233.851212 
	C168.010223,232.848206 164.166702,234.733276 160.034363,237.535782 
	C156.115616,240.193405 151.457489,241.776367 147.085739,243.745850 
	C143.058273,245.560226 138.940201,247.176147 134.935150,249.036835 
	C131.662476,250.557251 129.885696,250.151230 129.967575,246.067947 
	C130.016968,243.604187 129.711395,241.133301 129.310272,238.350616 
z"/>
<path fill="#000000" opacity="1.000000" stroke="none" 
	d="
M162.997620,226.172333 
	C160.886292,224.500916 158.774963,222.829514 156.337280,220.825104 
	C156.010910,220.492111 156.045349,220.095291 156.435425,219.887146 
	C156.922302,206.130264 157.019119,192.581528 157.115936,179.032776 
	C159.519592,177.349258 161.923248,175.665741 164.948059,173.925110 
	C165.748016,173.595490 165.926834,173.322998 166.105667,173.050507 
	C166.105667,173.050507 166.032028,173.036911 166.500854,173.018906 
	C179.311646,173.042999 191.653610,173.085098 203.995560,173.127197 
	C203.995560,173.127197 203.985229,173.026337 204.028320,173.266800 
	C204.355667,173.607361 204.639923,173.707443 204.924194,173.807541 
	C208.665909,174.399963 211.462738,175.932266 212.020737,180.186234 
	C212.451797,183.472351 214.249817,183.762115 216.704391,181.880875 
	C218.092224,180.817215 219.494537,179.772446 221.354156,178.211884 
	C225.288773,175.820847 227.777786,177.361984 229.984253,180.497543 
	C229.983536,193.642441 229.941330,206.323395 229.601990,219.103073 
	C229.263351,219.802399 229.221848,220.403000 229.180344,221.003601 
	C227.067673,221.666779 224.955002,222.329956 222.446198,222.941299 
	C221.099625,222.082825 220.104889,221.322403 219.206039,220.461853 
	C214.122040,215.594406 214.249710,215.652359 210.947815,221.637680 
	C210.003464,223.349487 208.145142,224.557068 205.885223,226.014496 
	C191.042236,226.079529 177.019928,226.125931 162.997620,226.172333 
M214.065262,213.441620 
	C214.065262,213.441620 214.398605,213.806580 214.398605,213.806580 
	C214.398605,213.806580 214.891830,213.778229 215.529266,214.050919 
	C217.008881,215.060989 218.488480,216.071075 220.235474,217.728607 
	C221.921783,218.877502 223.608078,220.026398 225.433151,221.269836 
	C226.106155,220.237915 226.900177,219.586487 226.904861,218.929459 
	C226.992493,206.620667 227.029633,194.310669 226.873840,182.003510 
	C226.865967,181.381577 225.023453,180.782898 223.330399,180.197968 
	C220.277161,182.160507 217.223938,184.123062 213.257416,186.200653 
	C213.181122,192.335022 212.998993,198.470718 213.075577,204.603165 
	C213.111038,207.441605 213.650848,210.273758 214.000107,213.010529 
	C214.000107,213.010529 213.901657,212.973038 214.065262,213.441620 
M210.761353,217.766464 
	C210.847626,206.289368 210.946838,194.812317 210.976578,183.335083 
	C210.977875,182.834732 210.341507,182.332748 209.990753,181.409470 
	C209.990753,181.409470 209.861160,181.007660 210.018692,180.349121 
	C209.389496,179.520004 208.760300,178.690887 208.000061,177.999695 
	C208.000061,177.999695 208.137192,177.868164 207.834015,177.209503 
	C206.288345,176.810852 204.742676,176.412216 202.782944,175.204071 
	C191.101974,175.116394 179.421036,175.011429 167.739944,174.987198 
	C167.090927,174.985855 166.440536,175.652679 165.049881,175.991531 
	C163.367416,177.277359 161.684952,178.563202 159.209946,180.273697 
	C159.145447,190.255615 158.996811,200.238083 159.063950,210.219116 
	C159.086212,213.527405 159.663651,216.831955 160.229004,220.751892 
	C161.085327,221.503708 161.941650,222.255508 163.256409,223.783493 
	C176.894836,223.853516 190.533234,223.937866 204.171722,223.950485 
	C204.841507,223.951096 205.511871,223.324860 206.880875,223.015030 
	C207.857208,221.666046 208.833542,220.317047 209.959717,218.586502 
	C209.959717,218.586502 209.958389,218.176407 210.761353,217.766464 
z"/>
<path fill="#EAC7E3" opacity="1.000000" stroke="none" 
	d="
M163.339264,226.405609 
	C177.019928,226.125931 191.042236,226.079529 205.531616,226.098358 
	C199.626328,226.450836 193.254654,226.755371 186.881180,227.014984 
	C184.903351,227.095551 182.920578,227.054123 180.473297,227.111176 
	C174.564651,226.982162 169.122772,226.810532 163.339264,226.405609 
z"/>
<path fill="#E287C8" opacity="1.000000" stroke="none" 
	d="
M229.942749,180.033600 
	C227.777786,177.361984 225.288773,175.820847 221.481308,177.878891 
	C218.644409,174.770218 221.888153,172.816116 223.566650,172.580566 
	C235.302078,170.933762 245.322556,164.663452 256.671631,160.997894 
	C257.300507,167.351135 257.545959,173.719711 257.353455,180.550476 
	C251.062256,182.937103 243.821350,181.709747 240.332642,189.080307 
	C239.229752,187.352554 238.495682,186.202591 237.550903,184.722519 
	C235.883713,186.191681 234.506256,187.405533 232.796295,188.912384 
	C232.111389,185.919312 231.548141,183.457870 230.841766,180.805908 
	C230.454361,180.411453 230.202408,180.217529 229.942749,180.033600 
z"/>
<path fill="#EAC7E3" opacity="1.000000" stroke="none" 
	d="
M203.696976,172.832550 
	C191.653610,173.085098 179.311646,173.042999 166.507675,173.055725 
	C166.504211,172.770584 166.962753,172.430634 167.714630,172.041122 
	C179.804764,172.173676 191.601578,172.355774 203.696976,172.832550 
z"/>
<path fill="#EAC7E3" opacity="1.000000" stroke="none" 
	d="
M204.779114,173.646362 
	C204.639923,173.707443 204.355667,173.607361 203.978180,173.274323 
	C204.134430,173.189697 204.384125,173.337631 204.779114,173.646362 
z"/>
<path fill="#966CC0" opacity="1.000000" stroke="none" 
	d="
M405.815308,195.474655 
	C406.644775,193.124908 407.495758,191.196045 408.540100,188.993393 
	C412.558655,186.036270 416.652588,185.346191 421.455505,187.139557 
	C422.308380,190.018570 421.608490,191.078812 418.388489,190.534821 
	C413.446899,189.699982 411.233429,191.736694 410.894104,196.562195 
	C410.471283,202.575195 412.386475,204.911591 417.553436,205.209290 
	C419.009644,205.293198 420.413116,206.292389 421.840759,206.871765 
	C420.375671,207.615616 418.966492,208.801041 417.431854,208.995255 
	C415.356812,209.257889 413.185486,208.759308 410.637024,208.411255 
	C408.839905,206.032440 407.461243,203.829666 405.963440,201.291489 
	C405.841827,199.269241 405.839325,197.582397 405.815308,195.474655 
z"/>
<path fill="#5B526B" opacity="1.000000" stroke="none" 
	d="
M444.723694,192.098450 
	C444.540436,192.088669 444.327179,191.807480 444.065063,191.264526 
	C444.242065,191.277527 444.467865,191.552277 444.723694,192.098450 
z"/>
<path fill="#5B526B" opacity="1.000000" stroke="none" 
	d="
M466.462219,192.013184 
	C467.512939,191.423645 468.930206,190.819916 470.708496,190.325256 
	C469.655945,190.955887 468.242371,191.477432 466.462219,192.013184 
z"/>
<path fill="#5B526B" opacity="1.000000" stroke="none" 
	d="
M485.213074,191.915222 
	C485.423676,191.384628 485.924530,190.817307 486.740509,190.310699 
	C486.538208,190.873764 486.020782,191.376129 485.213074,191.915222 
z"/>
<path fill="#5B526B" opacity="1.000000" stroke="none" 
	d="
M479.620300,207.217224 
	C479.892914,207.444473 479.998718,207.854645 480.159332,208.578400 
	C479.960602,208.394684 479.707062,207.897430 479.620300,207.217224 
z"/>
<path fill="#5B526B" opacity="1.000000" stroke="none" 
	d="
M463.103607,209.213837 
	C463.169800,209.061966 463.335266,209.035629 463.747864,209.054459 
	C463.994934,209.099609 463.645660,209.403442 463.645660,209.403442 
	C463.645660,209.403442 463.202911,209.339401 463.103607,209.213837 
z"/>
<path fill="#5B526B" opacity="1.000000" stroke="none" 
	d="
M479.652954,197.120514 
	C479.758972,197.015945 479.871735,197.500183 479.824524,197.743881 
	C479.494080,197.787216 479.417297,197.533051 479.652954,197.120514 
z"/>
<path fill="#5B526B" opacity="1.000000" stroke="none" 
	d="
M485.853882,194.851746 
	C485.680969,194.892151 485.391449,194.713120 485.032410,194.279938 
	C485.277191,194.156311 485.535309,194.358490 485.853882,194.851746 
z"/>
<path fill="#5B526B" opacity="1.000000" stroke="none" 
	d="
M338.911865,197.083069 
	C338.471283,196.061768 338.332397,195.001724 338.193542,193.941666 
	C338.435028,193.818436 338.676483,193.695190 338.917969,193.571960 
	C339.592957,194.488510 340.267944,195.405060 340.998962,196.645172 
	C340.441193,196.993912 339.827362,197.019104 338.911865,197.083069 
z"/>
<path fill="#444856" opacity="1.000000" stroke="none" 
	d="
M377.068329,193.198593 
	C378.751801,199.495346 377.594025,203.341949 373.795441,204.594574 
	C371.016846,205.510834 368.826721,205.365128 368.979584,201.453430 
	C369.119965,197.861008 369.009399,194.258789 369.009399,189.052002 
	C372.452698,190.714432 374.661377,191.780777 377.068329,193.198593 
z"/>
<path fill="#5B526B" opacity="1.000000" stroke="none" 
	d="
M362.587036,205.673676 
	C362.351654,204.885300 362.290100,203.860092 362.325562,202.459686 
	C362.535370,203.201950 362.648132,204.319412 362.587036,205.673676 
z"/>
<path fill="#5B526B" opacity="1.000000" stroke="none" 
	d="
M362.518616,194.862915 
	C362.406677,194.953461 362.269165,194.502151 362.336243,194.276428 
	C362.690308,194.228256 362.766052,194.468826 362.518616,194.862915 
z"/>
<path fill="#5B526B" opacity="1.000000" stroke="none" 
	d="
M362.508362,191.851410 
	C362.394867,191.936111 362.256744,191.497559 362.327881,191.279526 
	C362.685730,191.232697 362.760010,191.467758 362.508362,191.851410 
z"/>
<path fill="#B076BF" opacity="1.000000" stroke="none" 
	d="
M289.452087,208.974518 
	C288.351562,207.872696 287.695953,206.798309 286.747711,205.244400 
	C289.676941,205.244400 291.649750,205.438354 293.558228,205.171707 
	C294.705017,205.011520 295.751404,204.133072 296.842926,203.577408 
	C296.209259,202.541824 295.739899,201.335953 294.894287,200.519974 
	C294.095520,199.749191 292.902039,199.386658 291.880707,198.847336 
	C288.320007,196.967026 286.351105,193.663193 288.285889,190.321869 
	C289.522186,188.186859 293.115723,187.207489 295.840668,186.240356 
	C297.034729,185.816559 298.698730,186.716736 300.543091,187.063049 
	C301.349060,189.731766 300.980804,191.314728 297.593018,190.582718 
	C295.946686,190.226990 294.081390,190.884476 292.315216,191.083282 
	C292.203857,191.582870 292.092499,192.082474 291.981140,192.582062 
	C293.428558,193.730591 294.755127,195.096237 296.348328,195.982742 
	C299.729523,197.864136 302.745514,200.014572 301.596741,204.420517 
	C300.443817,208.842361 296.682892,209.261108 292.864655,209.193604 
	C291.874603,209.176102 290.886139,209.068283 289.452087,208.974518 
z"/>
<path fill="#5B526B" opacity="1.000000" stroke="none" 
	d="
M440.026855,192.666809 
	C440.782471,194.972565 441.410553,196.968399 442.556610,200.610168 
	C439.818054,199.472763 438.433777,198.897827 437.049530,198.322906 
	C437.999451,196.334229 438.949371,194.345566 440.026855,192.666809 
z"/>
<path fill="#5B526B" opacity="1.000000" stroke="none" 
	d="
M319.907227,207.931976 
	C319.610382,207.226273 319.546387,206.375366 319.645233,205.240082 
	C319.918732,205.899399 320.029388,206.843079 319.907227,207.931976 
z"/>
<path fill="#5B526B" opacity="1.000000" stroke="none" 
	d="
M320.138275,201.846252 
	C319.983063,201.126953 320.111145,200.273102 320.455322,199.173737 
	C320.588165,199.856033 320.504883,200.783859 320.138275,201.846252 
z"/>
<path fill="#5B526B" opacity="1.000000" stroke="none" 
	d="
M322.049927,196.851196 
	C321.956055,196.341553 322.160767,195.828262 322.571686,195.128113 
	C322.634766,195.576691 322.491638,196.212097 322.049927,196.851196 
z"/>
<path fill="#5B526B" opacity="1.000000" stroke="none" 
	d="
M324.136749,192.799606 
	C324.060181,192.626892 324.218292,192.311005 324.590485,191.831345 
	C324.660187,191.997192 324.515778,192.326813 324.136749,192.799606 
z"/>
<path fill="#5B526B" opacity="1.000000" stroke="none" 
	d="
M325.210449,190.819550 
	C325.120300,190.656677 325.244141,190.318130 325.573975,189.795532 
	C325.661469,189.955612 325.542969,190.299759 325.210449,190.819550 
z"/>
<path fill="#D982C9" opacity="1.000000" stroke="none" 
	d="
M230.984879,180.996445 
	C231.548141,183.457870 232.111389,185.919312 232.796295,188.912384 
	C234.506256,187.405533 235.883713,186.191681 237.550903,184.722519 
	C238.495682,186.202591 239.229752,187.352554 240.332642,189.080307 
	C243.821350,181.709747 251.062256,182.937103 257.287659,181.013702 
	C257.697174,186.712189 257.734589,192.409653 257.368469,198.634003 
	C250.675873,202.552444 242.891510,201.544312 236.941360,206.559021 
	C234.564941,208.561829 231.732620,206.737991 231.925278,202.661316 
	C232.029297,200.460068 231.350876,198.221848 230.997070,195.534821 
	C230.974106,190.378387 230.979492,185.687408 230.984879,180.996445 
z"/>
<path fill="#CF7DCB" opacity="1.000000" stroke="none" 
	d="
M231.025452,196.000305 
	C231.350876,198.221848 232.029297,200.460068 231.925278,202.661316 
	C231.732620,206.737991 234.564941,208.561829 236.941360,206.559021 
	C242.891510,201.544312 250.675873,202.552444 257.300598,199.099060 
	C257.494476,203.716446 257.352722,208.395645 257.209595,213.478638 
	C251.554977,215.880508 245.901718,217.878632 239.840042,220.021088 
	C239.160965,219.175949 237.842651,217.535217 235.866364,215.075607 
	C235.335342,223.687256 235.335342,223.687256 229.535248,221.019958 
	C229.221848,220.403000 229.263351,219.802399 229.878189,218.791016 
	C230.642822,210.920242 230.834137,203.460281 231.025452,196.000305 
z"/>
<path fill="#F699C6" opacity="1.000000" stroke="none" 
	d="
M245.838074,135.825104 
	C245.695648,135.894882 245.486938,135.749146 245.193848,135.411438 
	C245.360672,135.290207 245.581451,135.420242 245.838074,135.825104 
z"/>
<path fill="#E287C8" opacity="1.000000" stroke="none" 
	d="
M156.045349,220.095291 
	C156.045349,220.095291 156.010910,220.492111 156.026459,220.690643 
	C154.502808,222.740234 152.963623,224.591278 151.025101,226.922592 
	C149.601562,224.851913 148.839737,223.743774 148.061859,222.612274 
	C147.744415,222.889862 147.299316,223.140244 147.332062,223.270859 
	C148.072708,226.226166 146.943054,227.551529 144.020340,228.627060 
	C139.590637,230.257126 135.455307,232.687103 130.628235,235.055252 
	C130.233475,232.339432 129.890549,229.980148 129.297409,227.324158 
	C129.032700,221.326782 129.018188,215.626129 129.025421,209.456360 
	C129.047180,208.987213 129.519928,208.982224 129.759125,209.415894 
	C130.069901,216.586990 130.666443,216.873566 137.129578,214.445129 
	C143.251572,212.144897 149.487061,210.146744 155.740356,208.464905 
	C155.786972,211.641815 155.765884,214.369568 155.594360,217.256241 
	C155.569855,217.919571 155.695786,218.423996 155.873703,219.220886 
	C155.965576,219.707352 156.005463,219.901321 156.045349,220.095291 
z"/>
<path fill="#E98EC7" opacity="1.000000" stroke="none" 
	d="
M155.672668,208.015747 
	C149.487061,210.146744 143.251572,212.144897 137.129578,214.445129 
	C130.666443,216.873566 130.069901,216.586990 129.995483,209.413788 
	C129.993088,208.315811 129.993652,207.653610 129.993927,206.991394 
	C129.998901,194.472916 130.788773,193.518539 143.091644,191.023010 
	C144.374176,190.762878 145.621536,190.333191 146.899841,190.047653 
	C151.661163,188.984146 154.205017,185.863297 155.520264,181.592529 
	C155.816574,190.637146 155.744614,199.326447 155.672668,208.015747 
z"/>
<path fill="#EAC7E3" opacity="1.000000" stroke="none" 
	d="
M155.740372,208.464905 
	C155.744614,199.326447 155.816574,190.637146 155.866119,181.481888 
	C156.102722,180.472092 156.361755,179.928253 156.868362,179.208588 
	C157.019119,192.581528 156.922302,206.130264 156.435425,219.887146 
	C156.005463,219.901321 155.965576,219.707352 155.906342,218.915268 
	C155.839584,217.910553 155.792175,217.503952 155.744781,217.097336 
	C155.765884,214.369568 155.786972,211.641815 155.740372,208.464905 
z"/>
<path fill="#EAC7E3" opacity="1.000000" stroke="none" 
	d="
M165.915176,173.154663 
	C165.926834,173.322998 165.748016,173.595490 165.321167,173.840851 
	C165.233856,173.562454 165.451050,173.377487 165.915176,173.154663 
z"/>
<path fill="#E287C8" opacity="1.000000" stroke="none" 
	d="
M209.861160,181.007660 
	C209.861160,181.007660 209.990753,181.409470 209.963074,182.047455 
	C209.881317,183.822586 209.827240,184.959732 209.583466,186.326935 
	C209.515671,187.669159 209.637589,188.781311 209.795227,190.343140 
	C209.805817,193.190918 209.780685,195.589050 209.570816,197.994522 
	C209.386078,198.001877 209.012955,198.016922 208.609009,198.014389 
	C200.662872,200.340073 192.402374,201.436615 185.761169,205.309784 
	C177.547852,210.099777 169.777206,214.315979 159.990692,212.669189 
	C159.990479,211.884552 160.006302,211.436172 160.271271,210.709793 
	C160.356171,208.297028 160.191910,206.162231 160.005096,203.597504 
	C159.988373,201.445633 159.994186,199.723740 160.421814,198.000870 
	C168.073059,195.742554 175.323959,193.551254 182.524719,191.205978 
	C187.845581,189.472977 193.081802,187.481369 198.392578,185.715729 
	C201.880386,184.556183 206.436768,184.688339 205.640137,178.908051 
	C205.608765,178.680466 207.266510,178.220078 208.137192,177.868164 
	C208.137192,177.868164 208.000061,177.999695 208.035477,178.276825 
	C208.667648,179.371857 209.264404,180.189758 209.861160,181.007660 
z"/>
<path fill="#E98EC7" opacity="1.000000" stroke="none" 
	d="
M207.985596,177.538834 
	C207.266510,178.220078 205.608765,178.680466 205.640137,178.908051 
	C206.436768,184.688339 201.880386,184.556183 198.392578,185.715729 
	C193.081802,187.481369 187.845581,189.472977 182.524719,191.205978 
	C175.323959,193.551254 168.073059,195.742554 160.405121,197.583313 
	C159.985336,195.774475 160.004105,194.382248 160.158524,192.893646 
	C160.481033,192.465866 160.392105,192.203873 160.006546,191.548401 
	C159.991333,187.339996 159.996918,183.594528 160.002502,179.849045 
	C161.684952,178.563202 163.367416,177.277359 165.902496,176.052002 
	C178.902405,176.079514 191.049698,176.046555 203.197006,176.013580 
	C204.742676,176.412216 206.288345,176.810852 207.985596,177.538834 
z"/>
<path fill="#D982C9" opacity="1.000000" stroke="none" 
	d="
M214.170700,186.085602 
	C217.223938,184.123062 220.277161,182.160507 223.945679,180.459015 
	C224.967560,181.232254 225.723694,181.740677 225.729279,182.257233 
	C225.847870,193.231796 225.938217,204.208038 225.787445,215.180557 
	C225.778778,215.811905 223.720474,216.548996 222.523788,216.981796 
	C221.759842,217.258072 220.825851,217.064224 219.968094,217.081146 
	C218.488480,216.071075 217.008881,215.060989 215.057831,213.765656 
	C214.317963,213.365555 214.089706,213.196426 213.901657,212.973038 
	C213.901657,212.973038 214.000107,213.010529 213.991058,212.583206 
	C214.044907,203.465790 214.107803,194.775696 214.170700,186.085602 
z"/>
<path fill="#CF7DCB" opacity="1.000000" stroke="none" 
	d="
M162.797974,223.007324 
	C161.941650,222.255508 161.085327,221.503708 160.151459,220.102875 
	C160.097855,218.994934 160.121765,218.536026 160.409348,218.233948 
	C162.604126,219.562759 164.627258,221.873444 166.451736,221.725998 
	C180.679520,220.576141 195.699997,226.225952 209.041519,217.314575 
	C209.311249,218.045639 209.560562,218.506851 209.809875,218.968063 
	C208.833542,220.317047 207.857208,221.666046 206.049408,222.983490 
	C191.077957,222.970413 176.937958,222.988861 162.797974,223.007324 
z"/>
<path fill="#E287C8" opacity="1.000000" stroke="none" 
	d="
M220.101776,217.404877 
	C220.825851,217.064224 221.759842,217.258072 222.523788,216.981796 
	C223.720474,216.548996 225.778778,215.811905 225.787445,215.180557 
	C225.938217,204.208038 225.847870,193.231796 225.729279,182.257233 
	C225.723694,181.740677 224.967560,181.232254 224.298065,180.446716 
	C225.023453,180.782898 226.865967,181.381577 226.873840,182.003510 
	C227.029633,194.310669 226.992493,206.620667 226.904861,218.929459 
	C226.900177,219.586487 226.106155,220.237915 225.433151,221.269836 
	C223.608078,220.026398 221.921783,218.877502 220.101776,217.404877 
z"/>
<path fill="#EAC7E3" opacity="1.000000" stroke="none" 
	d="
M163.027191,223.395416 
	C176.937958,222.988861 191.077957,222.970413 205.699951,222.971222 
	C205.511871,223.324860 204.841507,223.951096 204.171722,223.950485 
	C190.533234,223.937866 176.894836,223.853516 163.027191,223.395416 
z"/>
<path fill="#EAC7E3" opacity="1.000000" stroke="none" 
	d="
M160.145676,218.077103 
	C160.121765,218.536026 160.097855,218.994934 160.030594,219.796036 
	C159.663651,216.831955 159.086212,213.527405 159.063950,210.219116 
	C158.996811,200.238083 159.145447,190.255615 159.606216,180.061371 
	C159.996918,183.594528 159.991333,187.339996 159.995026,191.792938 
	C160.004288,192.500412 160.022873,192.990005 160.022888,192.990005 
	C160.004105,194.382248 159.985336,195.774475 159.983276,197.584274 
	C159.994186,199.723740 159.988373,201.445633 159.984375,204.031021 
	C159.998154,206.925598 160.010132,208.956680 160.022125,210.987778 
	C160.006302,211.436172 159.990479,211.884552 159.971893,213.090302 
	C160.027985,215.257477 160.086838,216.667282 160.145676,218.077103 
z"/>
<path fill="#EAC7E3" opacity="1.000000" stroke="none" 
	d="
M230.997086,195.534821 
	C230.834137,203.460281 230.642822,210.920242 230.175323,218.692291 
	C229.941330,206.323395 229.983536,193.642441 229.984253,180.497543 
	C230.202408,180.217529 230.454361,180.411453 230.841766,180.805908 
	C230.979492,185.687408 230.974106,190.378387 230.997086,195.534821 
z"/>
<path fill="#EAC7E3" opacity="1.000000" stroke="none" 
	d="
M202.989975,175.608826 
	C191.049698,176.046555 178.902405,176.079514 166.272949,176.060501 
	C166.440536,175.652679 167.090927,174.985855 167.739944,174.987198 
	C179.421036,175.011429 191.101974,175.116394 202.989975,175.608826 
z"/>
<path fill="#EAC7E3" opacity="1.000000" stroke="none" 
	d="
M209.773163,186.096878 
	C209.827240,184.959732 209.881317,183.822586 209.968781,182.258484 
	C210.341507,182.332748 210.977875,182.834732 210.976578,183.335083 
	C210.946838,194.812317 210.847626,206.289368 210.300720,217.673859 
	C209.793533,217.384872 209.746994,217.188522 209.764679,216.609055 
	C209.815353,215.451202 209.801804,214.676453 209.838043,213.448059 
	C209.843750,207.992004 209.799652,202.989578 209.755554,197.987167 
	C209.780685,195.589050 209.805817,193.190918 209.849167,189.967407 
	C209.835983,188.126953 209.804565,187.111923 209.773163,186.096878 
z"/>
<path fill="#EAC7E3" opacity="1.000000" stroke="none" 
	d="
M213.714050,186.143127 
	C214.107803,194.775696 214.044907,203.465790 213.972015,212.632324 
	C213.650848,210.273758 213.111038,207.441605 213.075577,204.603165 
	C212.998993,198.470718 213.181122,192.335022 213.714050,186.143127 
z"/>
<path fill="#E98EC7" opacity="1.000000" stroke="none" 
	d="
M209.939926,180.678391 
	C209.264404,180.189758 208.667648,179.371857 208.100998,178.207870 
	C208.760300,178.690887 209.389496,179.520004 209.939926,180.678391 
z"/>
<path fill="#E98EC7" opacity="1.000000" stroke="none" 
	d="
M209.700455,216.992157 
	C209.746994,217.188522 209.793533,217.384872 209.899231,217.878815 
	C209.958389,218.176407 209.959717,218.586502 209.884796,218.777283 
	C209.560562,218.506851 209.311249,218.045639 209.210983,217.297943 
	C209.360046,217.011444 209.700455,216.992157 209.700455,216.992157 
z"/>
<path fill="#EAC7E3" opacity="1.000000" stroke="none" 
	d="
M213.983459,213.207336 
	C214.089706,213.196426 214.317963,213.365555 214.739105,213.629318 
	C214.891830,213.778229 214.398605,213.806580 214.398605,213.806580 
	C214.398605,213.806580 214.065262,213.441620 213.983459,213.207336 
z"/>
<path fill="#E98EC7" opacity="1.000000" stroke="none" 
	d="
M155.594345,217.256241 
	C155.792175,217.503952 155.839584,217.910553 155.854370,218.622803 
	C155.695786,218.423996 155.569855,217.919571 155.594345,217.256241 
z"/>
<path fill="#D982C9" opacity="1.000000" stroke="none" 
	d="
M209.764679,216.609055 
	C209.700455,216.992157 209.360046,217.011444 209.190582,217.028091 
	C195.699997,226.225952 180.679520,220.576141 166.451736,221.725998 
	C164.627258,221.873444 162.604126,219.562759 160.409348,218.233948 
	C160.086838,216.667282 160.027985,215.257477 159.987915,213.426544 
	C169.777206,214.315979 177.547852,210.099777 185.761169,205.309784 
	C192.402374,201.436615 200.662872,200.340073 208.606323,198.478729 
	C209.267776,203.930954 209.528000,208.916336 209.788239,213.901703 
	C209.801804,214.676453 209.815353,215.451202 209.764679,216.609055 
z"/>
<path fill="#E98EC7" opacity="1.000000" stroke="none" 
	d="
M209.838043,213.448059 
	C209.528000,208.916336 209.267776,203.930954 209.010254,198.481262 
	C209.012955,198.016922 209.386078,198.001877 209.570816,197.994522 
	C209.799652,202.989578 209.843750,207.992004 209.838043,213.448059 
z"/>
<path fill="#D982C9" opacity="1.000000" stroke="none" 
	d="
M160.271271,210.709793 
	C160.010132,208.956680 159.998154,206.925598 160.006912,204.460968 
	C160.191910,206.162231 160.356171,208.297028 160.271271,210.709793 
z"/>
<path fill="#E98EC7" opacity="1.000000" stroke="none" 
	d="
M209.583466,186.326935 
	C209.804565,187.111923 209.835983,188.126953 209.813446,189.517731 
	C209.637589,188.781311 209.515671,187.669159 209.583466,186.326935 
z"/>
<path fill="#E287C8" opacity="1.000000" stroke="none" 
	d="
M160.158508,192.893646 
	C160.022873,192.990005 160.004288,192.500412 160.015808,192.255859 
	C160.392105,192.203873 160.481033,192.465866 160.158508,192.893646 
z"/>
</svg>