<svg version="1.1" id="Layer_1" xmlns="http://www.w3.org/2000/svg" xmlns:xlink="http://www.w3.org/1999/xlink" x="0px" y="0px"
	 width="100%" viewBox="0 0 400 147" enable-background="new 0 0 400 147" xml:space="preserve">
<path fill="#030202" opacity="1.000000" stroke="none" 
	d="
M264.000000,148.000000 
	C176.000015,148.000000 88.500023,148.000000 1.000024,148.000000 
	C1.000016,99.000015 1.000016,50.000034 1.000008,1.000037 
	C134.333298,1.000024 267.666595,1.000024 400.999939,1.000012 
	C400.999939,49.999966 400.999939,98.999931 400.999969,147.999939 
	C355.500000,148.000000 310.000000,148.000000 264.000000,148.000000 
M176.100845,75.058838 
	C175.735382,75.029419 175.369934,75.000000 174.486893,74.943222 
	C174.329239,74.872574 174.171585,74.801926 173.882965,74.371193 
	C173.752914,74.129539 173.553268,73.982193 172.664291,73.803017 
	C172.458649,73.756645 172.252991,73.710281 172.030899,73.230690 
	C171.670258,73.164589 171.309631,73.098495 170.179276,72.963448 
	C169.432343,72.790161 168.685410,72.616882 168.192841,71.881706 
	C168.422958,71.130188 168.653076,70.378670 168.883194,69.627151 
	C168.622986,69.381493 168.362778,69.135841 168.102570,68.890182 
	C167.156769,69.690727 166.210953,70.491280 165.265152,71.291824 
	C165.992447,71.834358 166.719757,72.376900 167.710617,73.633484 
	C167.968063,74.347206 168.626053,75.534943 168.424377,75.705368 
	C163.296814,80.038315 163.398087,82.718742 168.951965,86.875687 
	C169.882050,87.548859 170.812134,88.222038 171.518677,89.001190 
	C171.518677,89.001190 171.763733,89.207062 171.763733,89.207062 
	C171.763733,89.207062 171.917862,88.947098 172.689056,89.307152 
	C175.877670,89.219101 179.066284,89.131042 182.363556,89.305069 
	C182.363556,89.305069 182.624420,89.190201 182.624420,89.190201 
	C182.624420,89.190201 182.612823,88.904922 183.588348,88.554169 
	C183.872726,88.357864 184.157104,88.161552 184.237518,88.020241 
	C184.237518,88.020241 184.318771,87.938126 185.036285,87.594833 
	C185.340439,87.167801 185.644592,86.740761 186.173111,86.467339 
	C186.173111,86.467339 186.274353,86.218056 186.274353,86.218056 
	C186.274353,86.218056 186.005600,86.230812 186.596710,85.618599 
	C190.538162,79.794373 184.906631,76.440727 183.169189,72.910881 
	C184.720001,70.908371 185.859589,69.436874 187.545959,68.301186 
	C188.379318,69.510643 189.212677,70.720093 190.106705,72.589966 
	C190.749969,73.070206 191.393250,73.550438 192.010056,74.928238 
	C190.774078,80.423103 192.671265,85.032410 196.896927,88.261177 
	C198.531372,89.510048 201.494476,89.255615 203.837051,89.184570 
	C204.460770,89.165657 205.665298,87.189255 205.518311,86.288635 
	C204.559555,80.413872 207.568405,75.809792 210.804932,71.365250 
	C211.008667,73.758926 211.088104,76.171700 211.452271,78.540718 
	C211.792877,80.756493 212.435379,82.925873 213.554138,85.523346 
	C213.865189,85.618996 214.298462,85.615028 214.469452,85.824829 
	C219.000381,91.383621 221.486267,91.208000 224.900925,85.173386 
	C225.098465,84.824303 226.282089,85.033203 227.446182,85.396774 
	C228.074203,85.895645 228.702225,86.394524 229.328430,87.504692 
	C229.888947,87.988014 230.449448,88.471336 231.830612,89.329811 
	C234.209198,89.228065 236.587769,89.126320 239.056442,89.292915 
	C239.056442,89.292915 239.408539,89.147591 239.408539,89.147591 
	C239.408539,89.147591 239.235428,88.905533 239.914734,88.432777 
	C240.047073,87.343086 240.179428,86.253395 240.928024,85.166382 
	C241.323715,85.071663 241.719391,84.976936 242.525925,85.136635 
	C242.525925,85.136635 242.993027,85.012810 243.618347,85.402908 
	C244.873398,86.716515 245.888947,88.626457 247.423981,89.242973 
	C255.048447,92.305168 264.687103,88.343140 268.421112,81.277100 
	C268.637909,81.476349 268.892914,81.589241 269.209717,82.356918 
	C269.784088,83.294998 270.358429,84.233070 271.573364,85.558701 
	C272.336243,86.682182 273.099152,87.805664 273.811554,89.265251 
	C273.704315,89.298935 273.597076,89.332626 273.489838,89.366318 
	C273.606812,89.222824 273.723785,89.079330 274.708649,89.328583 
	C282.512878,89.807739 282.501862,89.807587 282.613098,81.937515 
	C282.626892,80.960098 282.831421,79.985382 283.429993,79.342278 
	C285.478577,79.920403 284.223724,84.608627 287.994995,83.751709 
	C289.975769,85.486427 291.956512,87.221146 293.796265,89.194046 
	C293.796265,89.194046 293.608551,89.215149 293.608551,89.215149 
	C293.608551,89.215149 293.882996,88.960327 294.650482,89.287186 
	C297.755066,89.237411 300.859680,89.187637 304.529663,89.316360 
	C305.189514,88.943100 305.849365,88.569847 306.885986,88.166328 
	C307.144012,88.027321 307.246338,87.813736 307.831604,86.990784 
	C308.883850,87.695831 309.936096,88.400871 311.829407,89.432312 
	C313.892548,89.257996 315.955688,89.083679 318.373566,89.039093 
	C318.624512,88.345474 318.875458,87.651848 319.595947,86.211823 
	C320.743073,85.761909 321.890198,85.311989 323.533508,85.379608 
	C326.806244,88.755051 330.283630,91.421021 335.764221,88.530022 
	C335.504120,87.276352 335.356537,85.835083 334.901611,84.498444 
	C332.928558,78.701599 331.079620,72.845932 328.722534,67.205132 
	C327.869293,65.163223 325.721527,63.662243 323.884644,61.184261 
	C321.433990,57.616821 317.427795,57.810879 314.767670,59.385677 
	C312.962158,60.454548 312.840668,64.367981 311.376221,67.037071 
	C310.749115,68.563347 309.521698,70.123459 309.605469,71.609657 
	C309.875275,76.396782 307.683594,78.950531 303.038116,79.329536 
	C302.959290,78.894897 302.880463,78.460251 302.538635,77.224655 
	C300.612762,77.123512 298.686920,77.022362 296.768494,76.921608 
	C296.951660,71.237007 297.830902,70.526817 302.251526,71.431602 
	C303.702484,71.728561 306.053406,71.587738 306.749847,70.686569 
	C307.801697,69.325478 308.714172,66.310204 307.982117,65.453041 
	C306.641296,63.883087 304.055908,63.376091 301.990417,62.509850 
	C301.990417,62.509850 302.074371,62.512684 302.140869,62.391937 
	C302.140869,62.391937 302.037781,62.300407 302.955902,62.599625 
	C303.204681,62.082809 303.453461,61.565990 303.591400,60.435951 
	C299.408325,59.965172 295.225220,59.494392 290.332794,58.982018 
	C285.850098,59.767956 285.328156,63.228729 284.346802,66.965179 
	C283.891113,67.023674 283.435455,67.082169 282.361023,66.856094 
	C281.947540,65.885277 281.534058,64.914452 280.924957,63.385380 
	C280.224030,63.143909 279.523071,62.902439 278.814087,62.321533 
	C278.814087,62.321533 278.519348,62.153011 278.634460,61.381863 
	C277.642883,57.472149 274.345886,58.670185 272.231384,59.195591 
	C270.935699,59.517540 269.688416,62.026787 269.349762,63.737896 
	C268.849579,66.265511 269.177185,68.956940 268.479126,71.543495 
	C268.273071,71.455826 268.067017,71.368149 267.785217,70.649117 
	C267.665314,70.474327 267.545441,70.299538 267.553467,69.546745 
	C267.058075,68.992287 266.562653,68.437828 265.856018,67.320564 
	C265.251892,66.816223 264.647766,66.311882 263.866974,65.178413 
	C261.251953,63.456535 258.636932,61.734657 255.157791,59.939667 
	C250.745911,59.941772 246.334015,59.943878 241.495956,60.050037 
	C241.410843,60.168663 241.237122,60.306293 241.257706,60.402260 
	C241.313354,60.661770 241.451599,60.903564 241.538330,61.797623 
	C241.526688,62.442871 241.515045,63.088123 240.947739,63.812462 
	C240.587509,63.910191 240.227295,64.007919 239.472748,63.609833 
	C238.677734,63.388973 237.882721,63.168114 236.845963,62.252556 
	C235.854538,61.207207 234.863113,60.161858 233.871689,59.116512 
	C233.741409,59.714981 233.611130,60.313450 233.075073,60.309837 
	C232.233688,60.518692 231.392303,60.727547 230.604965,59.872459 
	C228.995773,61.034859 227.386566,62.197258 225.316589,63.692493 
	C224.964294,63.559734 223.472794,62.997669 222.148087,62.003647 
	C221.868179,61.680607 221.588272,61.357567 220.991196,60.217358 
	C220.268433,59.746147 219.410690,58.746399 218.845123,58.890808 
	C215.553131,59.731407 212.329758,60.840710 209.009888,61.166603 
	C208.351089,60.718719 207.692291,60.270836 206.879333,59.119755 
	C203.331970,57.542191 199.477890,59.111156 197.314453,62.886116 
	C196.556671,62.458950 195.798904,62.031784 195.099182,61.048878 
	C192.807709,60.068935 190.558212,58.477394 188.210526,58.316208 
	C186.543915,58.201786 184.744797,60.017590 182.494247,60.955284 
	C182.340927,60.881187 182.187607,60.807091 181.975708,60.096649 
	C181.303604,59.737858 180.631500,59.379063 179.177948,58.949871 
	C169.189041,58.273102 166.963913,59.255859 166.046738,64.947250 
	C168.242142,63.828262 170.326599,62.765831 173.172440,61.918678 
	C174.424576,61.792141 175.676727,61.665604 177.867920,61.414688 
	C178.805176,61.301743 179.742432,61.188797 180.631088,61.021793 
	C180.631088,61.021793 180.567902,60.985832 180.707108,61.767601 
	C180.417007,63.342995 181.516266,66.108475 177.592682,64.430283 
	C177.181137,64.412193 176.769592,64.394112 175.760773,64.447853 
	C174.596100,64.673065 173.431412,64.898277 171.854843,65.086487 
	C171.737991,65.155960 171.515488,65.239227 171.522446,65.292534 
	C171.553452,65.530052 171.650101,65.759010 171.810852,66.635338 
	C171.938721,67.269279 172.066605,67.903221 172.349915,69.235764 
	C172.774475,69.392365 173.199051,69.548958 174.294540,69.853653 
	C176.108383,70.804604 177.922226,71.755562 179.873123,73.232727 
	C180.163116,73.432556 180.453094,73.632378 180.859940,74.602631 
	C181.845642,80.695999 179.511719,83.643120 173.559189,83.692932 
	C172.109695,83.705055 170.657730,83.421715 168.685150,82.815109 
	C168.342148,81.832336 167.999161,80.849564 168.434723,79.968605 
	C168.956680,79.978752 169.478653,79.988892 170.509796,80.061752 
	C170.668976,80.124275 170.828140,80.186790 171.148163,80.556366 
	C171.427521,80.508942 171.706894,80.461510 172.717789,80.329765 
	C173.201797,80.402466 173.685791,80.475159 174.562210,80.858818 
	C175.084229,80.351547 175.606247,79.844269 176.248489,79.065613 
	C176.248489,79.065613 176.520203,79.185081 177.086624,78.995201 
	C176.960129,77.930305 176.833649,76.865410 176.344849,75.790947 
	C176.344849,75.790947 176.168533,75.474258 176.100845,75.058838 
M378.010712,69.354721 
	C377.910278,67.935143 377.809845,66.515564 377.844391,64.405449 
	C376.650696,63.897171 375.457031,63.388893 374.260590,62.320423 
	C373.516174,61.362106 372.771759,60.403793 371.770172,58.962223 
	C371.178467,59.115959 370.586792,59.269691 369.153381,59.817604 
	C364.272827,60.240086 358.831177,58.225414 354.198669,62.779263 
	C353.474274,61.792850 352.749908,60.806442 351.821655,59.043137 
	C346.584747,58.756992 341.348999,58.423985 336.108215,58.292828 
	C335.768066,58.284317 335.389099,59.828003 334.355621,61.078079 
	C334.320557,62.076363 334.285492,63.074646 333.966675,64.625374 
	C333.815277,65.456207 333.265656,66.534027 333.595734,67.066261 
	C334.274597,68.160843 336.000366,68.819656 336.273468,69.913040 
	C337.154480,73.440086 337.453796,77.108391 338.221558,80.669609 
	C338.566589,82.270134 339.490692,83.745827 340.933289,85.609138 
	C341.327026,85.874771 342.017242,86.091751 342.070007,86.413330 
	C342.850647,91.170311 346.610779,89.554741 349.092529,89.183952 
	C350.135834,89.028076 351.333099,86.154999 351.472412,84.437050 
	C351.815002,80.212021 351.584564,75.940536 351.584564,71.589844 
	C353.437347,71.342728 354.717682,71.171959 356.358612,71.866394 
	C356.442993,73.689850 356.388641,75.533066 356.644745,77.332069 
	C357.017151,79.948029 357.613312,82.532135 358.851349,85.548225 
	C359.407684,85.645805 359.964020,85.743385 360.493866,86.389275 
	C361.004181,87.302460 361.514496,88.215645 362.903503,89.462959 
	C367.616058,89.354790 372.328613,89.246613 377.695679,88.907837 
	C377.486938,86.892960 377.278198,84.878075 376.873260,82.309967 
	C376.640533,81.234009 376.407776,80.158043 376.833496,78.622086 
	C376.580017,76.364639 376.326508,74.107193 376.294495,71.320427 
	C376.637207,70.908081 376.979919,70.495743 377.471710,69.971802 
	C377.471710,69.971802 377.537659,69.797638 378.010712,69.354721 
M110.500076,9.642099 
	C80.507065,9.643699 50.514046,9.638583 20.521040,9.650548 
	C10.061604,9.654720 8.700073,11.022647 8.699041,21.439425 
	C8.695560,56.598011 8.697819,91.756599 8.704817,126.915184 
	C8.705148,128.580154 8.697609,130.250732 8.822650,131.908966 
	C9.123789,135.902588 10.964213,138.483673 15.283998,138.685822 
	C17.275888,138.779037 19.265882,139.011215 21.256804,139.012009 
	C56.248680,139.025986 91.240570,139.020432 126.232460,139.003418 
	C136.592758,138.998383 138.061890,137.514862 138.064072,127.162849 
	C138.069763,100.169006 138.067947,73.175156 138.066483,46.181309 
	C138.065994,37.016747 138.182007,27.849878 138.012360,18.688366 
	C137.882843,11.694976 135.956055,9.845704 128.995316,9.680264 
	C123.166580,9.541728 117.332024,9.647418 110.500076,9.642099 
z"/>
<path fill="#FCF8F7" opacity="1.000000" stroke="none" 
	d="
M111.000061,9.643534 
	C117.332024,9.647418 123.166580,9.541728 128.995316,9.680264 
	C135.956055,9.845704 137.882843,11.694976 138.012360,18.688366 
	C138.182007,27.849878 138.065994,37.016747 138.066483,46.181309 
	C138.067947,73.175156 138.069763,100.169006 138.064072,127.162849 
	C138.061890,137.514862 136.592758,138.998383 126.232460,139.003418 
	C91.240570,139.020432 56.248680,139.025986 21.256804,139.012009 
	C19.265882,139.011215 17.275888,138.779037 15.283998,138.685822 
	C10.964213,138.483673 9.123789,135.902588 8.822650,131.908966 
	C8.697609,130.250732 8.705148,128.580154 8.704817,126.915184 
	C8.697819,91.756599 8.695560,56.598011 8.699041,21.439425 
	C8.700073,11.022647 10.061604,9.654720 20.521040,9.650548 
	C50.514046,9.638583 80.507065,9.643699 111.000061,9.643534 
M97.956924,94.092155 
	C101.553383,96.176674 104.898087,100.745712 109.564682,94.908264 
	C109.564682,94.908264 109.628494,94.466629 110.126518,94.146576 
	C110.117744,93.776329 110.108971,93.406082 110.312561,92.114586 
	C110.326645,79.723457 110.340721,67.332329 110.736343,54.447433 
	C107.675056,48.507923 102.623291,48.531715 97.707489,55.144226 
	C97.114403,55.421124 96.521317,55.698021 95.091469,56.115898 
	C94.821663,56.200809 94.551857,56.285725 93.622162,56.129772 
	C91.865883,51.097397 89.008392,47.381306 82.229553,47.074764 
	C80.447220,47.161858 78.664886,47.248951 75.964920,47.242558 
	C68.347229,47.273319 60.729534,47.304081 52.256359,47.080029 
	C50.481609,47.150452 48.706860,47.220875 46.185200,47.234756 
	C39.333992,48.846497 36.453175,51.553478 36.307194,57.788628 
	C36.050488,68.753471 36.121170,79.730194 36.287971,90.698387 
	C36.344566,94.419952 37.293488,98.014275 41.629860,99.410339 
	C41.629860,99.410339 41.706139,99.432892 41.926769,99.935265 
	C42.271492,99.983704 42.616215,100.032143 43.372578,100.432571 
	C43.901211,100.500969 44.429840,100.569359 45.464031,100.989937 
	C45.655827,100.916504 45.847626,100.843063 46.936394,101.044350 
	C59.598103,100.907516 72.259811,100.770683 85.607010,100.855270 
	C88.055107,98.902466 90.503204,96.949669 93.702995,94.926018 
	C94.910202,94.572838 96.117416,94.219650 97.956924,94.092155 
z"/>
<path fill="#262320" opacity="1.000000" stroke="none" 
	d="
M221.308365,61.034523 
	C221.588272,61.357567 221.868179,61.680607 221.979156,62.629158 
	C224.041641,67.572975 226.273071,71.891266 228.504486,76.209564 
	C228.837936,76.011734 229.171387,75.813896 229.504837,75.616066 
	C229.853531,70.722847 230.202225,65.829628 230.550903,60.936401 
	C231.392303,60.727547 232.233688,60.518692 233.296844,60.991467 
	C233.727615,62.133293 233.936615,62.593491 234.078690,63.514542 
	C234.011765,70.332031 234.011765,76.688667 234.011765,83.298660 
	C231.508438,83.298660 229.724289,83.298660 227.784210,82.980270 
	C224.779404,77.837372 221.930573,73.012863 219.081741,68.188347 
	C217.999344,72.428017 217.877731,76.187515 218.037521,79.935020 
	C218.167175,82.975494 216.994690,83.883507 214.207947,82.426086 
	C214.106583,76.962624 213.988617,71.958435 213.935471,66.566986 
	C213.952301,65.136536 213.904312,64.093353 214.068085,62.719322 
	C216.622665,61.937164 218.965515,61.485844 221.308365,61.034523 
z"/>
<path fill="#EFEBE9" opacity="1.000000" stroke="none" 
	d="
M169.206894,83.274231 
	C170.657730,83.421715 172.109695,83.705055 173.559189,83.692932 
	C179.511719,83.643120 181.845642,80.695999 181.006531,73.991447 
	C181.152023,72.433968 181.150909,71.487679 181.149811,70.541382 
	C180.678558,71.263092 180.207321,71.984802 179.736069,72.706512 
	C177.922226,71.755562 176.108383,70.804604 173.782623,69.517975 
	C172.911972,68.967255 172.553207,68.752213 172.194458,68.537170 
	C172.066605,67.903221 171.938721,67.269279 171.992126,66.152260 
	C172.204498,65.487282 172.235611,65.305382 172.266739,65.123482 
	C173.431412,64.898277 174.596100,64.673065 176.275604,64.634277 
	C177.194885,64.855003 177.599304,64.889297 178.003738,64.923592 
	C181.516266,66.108475 180.417007,63.342995 181.003876,61.312210 
	C181.545197,60.815548 181.789734,60.774273 182.034286,60.732998 
	C182.187607,60.807091 182.340927,60.881187 182.824585,61.225620 
	C183.467560,61.922741 183.780182,62.349529 184.103683,63.106003 
	C185.396332,63.624599 186.678101,63.813515 188.106110,64.261719 
	C188.578751,64.990662 188.905151,65.460327 188.893143,65.980377 
	C188.036209,66.675629 187.517685,67.320503 186.999176,67.965378 
	C185.859589,69.436874 184.720001,70.908371 183.169189,72.910881 
	C184.906631,76.440727 190.538162,79.794373 186.294312,85.939079 
	C185.991913,86.259560 185.948746,86.313728 185.948746,86.313728 
	C185.644592,86.740761 185.340439,87.167801 184.681122,87.799438 
	C184.325958,88.004051 184.441483,87.965233 184.441483,87.965240 
	C184.157104,88.161552 183.872726,88.357864 183.027588,88.687737 
	C182.466827,88.821304 182.254898,89.042984 182.254898,89.042984 
	C179.066284,89.131042 175.877670,89.219101 172.269104,89.081779 
	C171.849167,88.856407 171.742233,88.895210 171.742233,88.895218 
	C170.812134,88.222038 169.882050,87.548859 169.006042,86.032280 
	C169.109039,84.550659 169.157959,83.912445 169.206894,83.274231 
z"/>
<path fill="#201E1C" opacity="1.000000" stroke="none" 
	d="
M303.238983,79.966690 
	C307.683594,78.950531 309.875275,76.396782 309.605469,71.609657 
	C309.521698,70.123459 310.749115,68.563347 312.040283,66.949165 
	C313.153656,66.226021 313.754059,65.649620 314.028046,64.946098 
	C315.932129,60.056297 319.076843,59.537331 322.645325,63.941650 
	C324.786865,70.432167 326.907898,76.554565 329.309540,83.486862 
	C326.937317,83.140617 325.536652,82.936188 324.097168,82.355667 
	C322.708252,80.714699 321.506775,78.652893 319.974060,78.366997 
	C317.521210,77.909485 314.341095,77.066757 313.217438,81.236244 
	C312.963287,82.179451 310.072266,83.112732 308.606110,82.854080 
	C306.706421,82.518936 305.018219,80.984711 303.238983,79.966690 
M321.170105,72.033203 
	C320.472229,70.000465 319.774353,67.967720 319.076447,65.934975 
	C318.691711,66.000526 318.306976,66.066071 317.922241,66.131615 
	C317.214203,68.683403 316.506195,71.235191 315.376831,75.305534 
	C318.222290,74.162193 319.785065,73.534248 321.170105,72.033203 
z"/>
<path fill="#F2EEEC" opacity="1.000000" stroke="none" 
	d="
M213.856339,63.050163 
	C213.904312,64.093353 213.952301,65.136536 213.600220,66.611435 
	C212.132462,68.360634 211.064774,69.678131 209.997070,70.995621 
	C207.568405,75.809792 204.559555,80.413872 205.518311,86.288635 
	C205.665298,87.189255 204.460770,89.165657 203.837051,89.184570 
	C201.494476,89.255615 198.531372,89.510048 196.896927,88.261177 
	C192.671265,85.032410 190.774078,80.423103 192.433411,74.421913 
	C193.770782,76.780632 194.684830,79.645676 195.764374,83.029510 
	C196.315567,83.029510 197.671906,83.029510 197.613754,83.029510 
	C199.845459,77.069344 201.886932,71.816254 203.762314,66.504524 
	C204.450394,64.555603 204.668381,62.443707 205.289536,60.465420 
	C205.402908,60.104340 206.428833,60.029781 207.033493,59.822956 
	C207.692291,60.270836 208.351089,60.718719 209.075439,61.849693 
	C210.712784,62.705242 212.284561,62.877705 213.856339,63.050163 
z"/>
<path fill="#EFEBE9" opacity="1.000000" stroke="none" 
	d="
M352.025543,59.820023 
	C352.749908,60.806442 353.474274,61.792850 354.772186,63.169708 
	C356.555511,63.707775 357.765320,63.855400 359.077942,64.431046 
	C359.110840,66.904655 359.040955,68.950249 358.753723,70.974442 
	C358.536316,70.953049 358.099457,70.946518 357.744568,70.899109 
	C356.925781,70.901527 356.461884,70.951363 355.997986,71.001198 
	C354.717682,71.171959 353.437347,71.342728 351.584564,71.589844 
	C351.584564,75.940536 351.815002,80.212021 351.472412,84.437050 
	C351.333099,86.154999 350.135834,89.028076 349.092529,89.183952 
	C346.610779,89.554741 342.850647,91.170311 342.070007,86.413330 
	C342.017242,86.091751 341.327026,85.874771 340.564240,85.213867 
	C340.449921,84.286751 340.704681,83.754898 341.409973,83.291092 
	C347.970367,83.292946 344.150543,78.449577 345.548645,75.943497 
	C345.598999,75.552048 345.484009,75.254097 345.292450,74.524689 
	C345.215881,71.175140 345.215881,68.257057 345.215881,65.217857 
	C347.467316,64.996712 349.073364,64.838959 350.121552,64.736000 
	C350.846039,62.865391 351.435791,61.342701 352.025543,59.820023 
z"/>
<path fill="#F6F2F0" opacity="1.000000" stroke="none" 
	d="
M267.425537,70.124741 
	C267.545441,70.299538 267.665314,70.474327 267.757629,70.989166 
	C267.730072,71.329224 267.657745,71.448738 267.727295,71.933243 
	C267.883362,75.299202 267.969849,78.180672 268.056335,81.062134 
	C264.687103,88.343140 255.048447,92.305168 247.423981,89.242973 
	C245.888947,88.626457 244.873398,86.716515 243.428207,84.920746 
	C243.514664,83.881218 243.791260,83.323860 244.518188,82.854515 
	C247.440247,82.978928 249.913254,83.084007 252.383453,83.038101 
	C258.412231,82.926094 261.942780,79.734680 262.346466,73.703964 
	C262.497375,71.449928 261.904297,69.146095 261.995239,66.856102 
	C262.907898,66.500664 263.475769,66.154099 264.043640,65.807541 
	C264.647766,66.311882 265.251892,66.816223 265.913483,67.895210 
	C266.455811,69.021484 266.940674,69.573112 267.425537,70.124741 
z"/>
<path fill="#25201F" opacity="1.000000" stroke="none" 
	d="
M206.956421,59.471359 
	C206.428833,60.029781 205.402908,60.104340 205.289536,60.465420 
	C204.668381,62.443707 204.450394,64.555603 203.762314,66.504524 
	C201.886932,71.816254 199.845459,77.069344 197.613754,83.029510 
	C197.671906,83.029510 196.315567,83.029510 195.764374,83.029510 
	C194.684830,79.645676 193.770782,76.780632 192.446625,73.973129 
	C191.393250,73.550438 190.749969,73.070206 190.405685,72.371407 
	C190.951752,72.319504 191.186310,72.512009 191.451782,72.640770 
	C191.566528,72.696419 191.745117,72.620384 191.894714,72.604164 
	C191.006989,70.379440 190.119278,68.154716 189.231552,65.929993 
	C188.905151,65.460327 188.578751,64.990662 188.055023,63.879654 
	C186.602722,63.084316 185.347778,62.930317 184.092819,62.776318 
	C183.780182,62.349529 183.467560,61.922741 183.079865,61.233906 
	C184.744797,60.017590 186.543915,58.201786 188.210526,58.316208 
	C190.558212,58.477394 192.807709,60.068935 194.691360,61.433815 
	C191.753372,65.620247 196.119461,66.720406 196.705704,69.301163 
	C197.334488,69.226425 197.963257,69.151695 198.592026,69.076958 
	C198.383347,66.967407 198.174683,64.857849 197.966003,62.748299 
	C199.477890,59.111156 203.331970,57.542191 206.956421,59.471359 
z"/>
<path fill="#251F1D" opacity="1.000000" stroke="none" 
	d="
M288.010651,83.023911 
	C284.223724,84.608627 285.478577,79.920403 283.002075,79.057755 
	C282.463593,78.346909 282.353058,77.920586 282.535034,77.391823 
	C283.223145,77.170113 283.618744,77.050842 284.424133,76.820969 
	C284.870605,73.814651 284.907257,70.918953 285.040924,67.732430 
	C285.100922,67.240593 285.063934,67.039589 285.026947,66.838585 
	C285.328156,63.228729 285.850098,59.767956 290.586609,59.431145 
	C291.910980,60.276382 292.952942,60.807140 294.057831,61.041786 
	C296.714294,61.605961 299.400299,62.031322 302.074371,62.512684 
	C302.074371,62.512684 301.990417,62.509850 301.891418,62.913864 
	C300.554565,63.845024 299.342865,64.448906 298.072998,64.882210 
	C295.899567,65.623833 292.160553,65.799538 291.791870,67.027451 
	C290.820465,70.262680 290.441895,74.258942 291.578369,77.297104 
	C292.143311,78.807297 296.544708,78.913536 299.229156,79.579971 
	C299.994873,79.770065 300.825806,79.697525 301.547180,80.063385 
	C300.468109,81.377106 299.528015,83.144310 298.458344,83.226578 
	C295.001434,83.492424 291.496857,83.138809 288.010651,83.023911 
z"/>
<path fill="#ECE8E5" opacity="1.000000" stroke="none" 
	d="
M288.002808,83.387810 
	C291.496857,83.138809 295.001434,83.492424 298.458344,83.226578 
	C299.528015,83.144310 300.468109,81.377106 301.696045,79.743179 
	C302.216919,78.745209 302.509277,78.385414 302.801636,78.025612 
	C302.880463,78.460251 302.959290,78.894897 303.138550,79.648117 
	C305.018219,80.984711 306.706421,82.518936 308.606110,82.854080 
	C310.072266,83.112732 312.963287,82.179451 313.217438,81.236244 
	C314.341095,77.066757 317.521210,77.909485 319.974060,78.366997 
	C321.506775,78.652893 322.708252,80.714699 323.979980,82.632195 
	C323.613464,83.810555 323.325378,84.336304 323.037323,84.862061 
	C321.890198,85.311989 320.743073,85.761909 319.134155,86.680725 
	C318.454529,87.736206 318.236694,88.322784 318.018829,88.909363 
	C315.955688,89.083679 313.892548,89.257996 311.406006,88.862152 
	C310.284424,87.217773 309.586273,86.143547 308.888123,85.069321 
	C308.323090,85.888084 307.758026,86.706841 307.192963,87.525589 
	C307.246338,87.813736 307.144012,88.027321 306.401489,88.125519 
	C305.266113,88.435768 304.615173,88.786812 303.964264,89.137863 
	C300.859680,89.187637 297.755066,89.237411 294.274780,89.142120 
	C293.899078,88.997055 293.937256,88.955872 293.937256,88.955872 
	C291.956512,87.221146 289.975769,85.486427 288.002808,83.387810 
z"/>
<path fill="#272623" opacity="1.000000" stroke="none" 
	d="
M358.971069,70.995834 
	C359.040955,68.950249 359.110840,66.904655 359.227631,64.057861 
	C360.469269,59.313992 363.735992,61.984768 365.906128,61.167736 
	C367.291626,60.646114 368.633606,60.008839 369.995087,59.423424 
	C370.586792,59.269691 371.178467,59.115959 371.356812,59.437737 
	C371.311707,60.944416 371.679932,61.975582 371.937286,63.402637 
	C370.393524,64.183105 368.874969,64.384628 367.551788,65.003693 
	C366.227234,65.623405 365.097870,66.660286 363.882965,67.514305 
	C365.020905,68.301132 366.074646,69.281082 367.319061,69.823639 
	C368.727692,70.437782 370.307343,70.659561 371.698059,71.413742 
	C370.507111,72.436737 369.388733,73.722290 368.361542,73.653122 
	C363.415955,73.320152 363.391846,75.853996 364.406250,79.564552 
	C367.076202,79.755157 369.518890,79.929535 371.942383,80.538506 
	C371.308350,81.749443 370.735138,83.152695 370.071564,83.196831 
	C366.656586,83.423950 363.218445,83.302124 359.581451,83.302124 
	C359.360901,78.855553 359.165985,74.925690 358.971069,70.995834 
z"/>
<path fill="#DDD9D7" opacity="1.000000" stroke="none" 
	d="
M323.285400,85.120834 
	C323.325378,84.336304 323.613464,83.810555 324.018768,83.008270 
	C325.536652,82.936188 326.937317,83.140617 329.309540,83.486862 
	C326.907898,76.554565 324.786865,70.432167 322.845428,63.612724 
	C323.404846,62.581928 323.784668,62.248188 324.164459,61.914444 
	C325.721527,63.662243 327.869293,65.163223 328.722534,67.205132 
	C331.079620,72.845932 332.928558,78.701599 334.901611,84.498444 
	C335.356537,85.835083 335.504120,87.276352 335.764221,88.530022 
	C330.283630,91.421021 326.806244,88.755051 323.285400,85.120834 
z"/>
<path fill="#E5E1DF" opacity="1.000000" stroke="none" 
	d="
M302.670135,77.625137 
	C302.509277,78.385414 302.216919,78.745209 301.775696,79.425217 
	C300.825806,79.697525 299.994873,79.770065 299.229156,79.579971 
	C296.544708,78.913536 292.143311,78.807297 291.578369,77.297104 
	C290.441895,74.258942 290.820465,70.262680 291.791870,67.027451 
	C292.160553,65.799538 295.899567,65.623833 298.072998,64.882210 
	C299.342865,64.448906 300.554565,63.845024 301.890930,62.871868 
	C304.055908,63.376091 306.641296,63.883087 307.982117,65.453041 
	C308.714172,66.310204 307.801697,69.325478 306.749847,70.686569 
	C306.053406,71.587738 303.702484,71.728561 302.251526,71.431602 
	C297.830902,70.526817 296.951660,71.237007 296.768494,76.921608 
	C298.686920,77.022362 300.612762,77.123512 302.670135,77.625137 
z"/>
<path fill="#201C1B" opacity="1.000000" stroke="none" 
	d="
M345.383270,76.037010 
	C344.150543,78.449577 347.970367,83.292946 341.330872,82.813934 
	C340.801208,76.538185 340.801208,70.807625 340.801208,65.266243 
	C338.247314,64.766037 336.508331,64.425438 334.818420,63.651520 
	C334.921021,62.362015 334.974609,61.505836 335.028168,60.649654 
	C335.389099,59.828003 335.768066,58.284317 336.108215,58.292828 
	C341.348999,58.423985 346.584747,58.756992 351.923584,59.431576 
	C351.435791,61.342701 350.846039,62.865391 350.121552,64.736000 
	C349.073364,64.838959 347.467316,64.996712 345.215881,65.217857 
	C345.215881,68.257057 345.215881,71.175140 345.193909,74.796234 
	C345.242401,75.678497 345.312836,75.857758 345.383270,76.037010 
z"/>
<path fill="#FBF7F6" opacity="1.000000" stroke="none" 
	d="
M227.940155,83.298660 
	C229.724289,83.298660 231.508438,83.298660 234.011765,83.298660 
	C234.011765,76.688667 234.011765,70.332031 234.449524,63.526402 
	C235.620773,63.034023 236.354233,62.990639 237.087708,62.947254 
	C237.882721,63.168114 238.677734,63.388973 239.606964,64.315994 
	C239.931366,71.736000 240.121567,78.449852 240.311768,85.163696 
	C240.179428,86.253395 240.047073,87.343086 239.484802,88.646942 
	C239.054886,88.861115 238.966354,89.024582 238.966354,89.024582 
	C236.587769,89.126320 234.209198,89.228065 231.404816,88.844818 
	C230.429413,87.871025 229.879822,87.382210 229.330246,86.893394 
	C228.702225,86.394524 228.074203,85.895645 227.336487,84.974258 
	C227.464569,84.134048 227.702362,83.716354 227.940155,83.298660 
z"/>
<path fill="#E7E3E1" opacity="1.000000" stroke="none" 
	d="
M282.242554,77.494263 
	C282.353058,77.920586 282.463593,78.346909 282.760834,78.891327 
	C282.831421,79.985382 282.626892,80.960098 282.613098,81.937515 
	C282.501862,89.807587 282.512878,89.807739 274.264679,89.152466 
	C273.820709,88.976349 273.862030,88.929138 273.862030,88.929138 
	C273.099152,87.805664 272.336243,86.682182 271.352783,85.095581 
	C271.428101,84.140831 271.723969,83.649193 272.464722,83.081680 
	C275.408203,83.382774 276.380157,82.504837 276.286652,79.803673 
	C276.080994,73.863838 276.215057,67.912239 276.498199,62.003006 
	C277.363739,62.078049 277.941528,62.115528 278.519348,62.153011 
	C278.519348,62.153011 278.814087,62.321533 278.934387,62.753273 
	C279.743317,63.437885 280.431946,63.690762 281.120575,63.943634 
	C281.534058,64.914452 281.947540,65.885277 282.602051,67.400406 
	C282.642883,71.127907 282.442719,74.311081 282.242554,77.494263 
z"/>
<path fill="#DAD6D4" opacity="1.000000" stroke="none" 
	d="
M227.784210,82.980270 
	C227.702362,83.716354 227.464569,84.134048 227.116791,84.767090 
	C226.282089,85.033203 225.098465,84.824303 224.900925,85.173386 
	C221.486267,91.208000 219.000381,91.383621 214.469452,85.824829 
	C214.298462,85.615028 213.865189,85.618996 213.285645,84.980011 
	C213.408554,83.919571 213.799942,83.402473 214.191330,82.885376 
	C216.994690,83.883507 218.167175,82.975494 218.037521,79.935020 
	C217.877731,76.187515 217.999344,72.428017 219.081741,68.188347 
	C221.930573,73.012863 224.779404,77.837372 227.784210,82.980270 
z"/>
<path fill="#DDD9D7" opacity="1.000000" stroke="none" 
	d="
M358.753693,70.974442 
	C359.165985,74.925690 359.360901,78.855553 359.581451,83.302124 
	C363.218445,83.302124 366.656586,83.423950 370.071564,83.196831 
	C370.735138,83.152695 371.308350,81.749443 372.179779,80.244728 
	C373.682587,79.371605 374.928802,79.226845 376.175049,79.082085 
	C376.407776,80.158043 376.640533,81.234009 376.970764,83.034454 
	C377.059235,85.552116 377.050201,87.345276 377.041168,89.138443 
	C372.328613,89.246613 367.616058,89.354790 362.448456,88.962845 
	C361.502380,87.588814 361.011353,86.714890 360.520355,85.840965 
	C359.964020,85.743385 359.407684,85.645805 358.454529,84.930717 
	C358.071655,79.857643 358.085541,75.402084 358.099457,70.946518 
	C358.099457,70.946518 358.536316,70.953049 358.753693,70.974442 
z"/>
<path fill="#BEBAB7" opacity="1.000000" stroke="none" 
	d="
M334.769379,64.084839 
	C336.508331,64.425438 338.247314,64.766037 340.801208,65.266243 
	C340.801208,70.807625 340.801208,76.538185 340.880310,82.745895 
	C340.704681,83.754898 340.449921,84.286751 340.173615,85.048386 
	C339.490692,83.745827 338.566589,82.270134 338.221558,80.669609 
	C337.453796,77.108391 337.154480,73.440086 336.273468,69.913040 
	C336.000366,68.819656 334.274597,68.160843 333.595734,67.066261 
	C333.265656,66.534027 333.815277,65.456207 334.237885,64.369217 
	C334.509094,64.113068 334.769379,64.084839 334.769379,64.084839 
z"/>
<path fill="#FCF8F7" opacity="1.000000" stroke="none" 
	d="
M376.504272,78.852081 
	C374.928802,79.226845 373.682587,79.371605 372.198944,79.810135 
	C369.518890,79.929535 367.076202,79.755157 364.406250,79.564552 
	C363.391846,75.853996 363.415955,73.320152 368.361542,73.653122 
	C369.388733,73.722290 370.507111,72.436737 371.986816,71.403236 
	C372.582520,71.021194 372.774902,71.011444 373.089722,71.296005 
	C374.165802,71.676788 375.119415,71.763268 376.073029,71.849747 
	C376.326508,74.107193 376.580017,76.364639 376.504272,78.852081 
z"/>
<path fill="#F2EEEC" opacity="1.000000" stroke="none" 
	d="
M372.967285,71.001694 
	C372.774902,71.011444 372.582520,71.021194 372.101379,71.041443 
	C370.307343,70.659561 368.727692,70.437782 367.319061,69.823639 
	C366.074646,69.281082 365.020905,68.301132 363.882965,67.514305 
	C365.097870,66.660286 366.227234,65.623405 367.551788,65.003693 
	C368.874969,64.384628 370.393524,64.183105 372.306580,63.383041 
	C373.278961,62.938572 373.771149,62.909595 374.263336,62.880615 
	C375.457031,63.388893 376.650696,63.897171 377.525635,65.071991 
	C377.317169,67.091576 377.427399,68.444603 377.537659,69.797638 
	C377.537659,69.797638 377.471710,69.971802 377.018494,69.997940 
	C375.365936,70.349945 374.166595,70.675819 372.967285,71.001694 
z"/>
<path fill="#D2CECB" opacity="1.000000" stroke="none" 
	d="
M244.067841,82.766495 
	C243.791260,83.323860 243.514664,83.881218 243.115540,84.725693 
	C242.993027,85.012810 242.525925,85.136635 242.311325,84.548218 
	C241.898956,77.217659 241.701172,70.475517 241.503387,63.733372 
	C241.515045,63.088123 241.526688,62.442871 241.735245,61.202492 
	C241.928833,60.386906 241.925491,60.166447 241.922134,59.945984 
	C246.334015,59.943878 250.745911,59.941772 255.877655,60.275497 
	C256.852112,61.396065 257.106689,62.180805 256.970642,62.708168 
	C252.602905,61.973003 248.625763,61.495209 244.067841,60.947647 
	C244.067841,68.906670 244.067841,75.836586 244.067841,82.766495 
z"/>
<path fill="#D2CECB" opacity="1.000000" stroke="none" 
	d="
M168.946014,83.044670 
	C169.157959,83.912445 169.109039,84.550659 168.996216,85.664795 
	C163.398087,82.718742 163.296814,80.038315 168.424377,75.705368 
	C168.626053,75.534943 167.968063,74.347206 167.794006,73.252853 
	C167.877411,72.872215 167.938477,72.443596 167.938477,72.443604 
	C168.685410,72.616882 169.432343,72.790161 170.649719,73.246552 
	C171.429230,73.574417 171.738281,73.619171 172.047348,73.663925 
	C172.252991,73.710281 172.458649,73.756645 172.934052,74.100876 
	C173.203827,74.398727 173.537643,74.738396 173.537643,74.738396 
	C173.537643,74.738396 174.013916,74.731277 174.013916,74.731277 
	C174.171585,74.801926 174.329239,74.872574 174.840454,75.220428 
	C175.518860,75.489845 175.843689,75.482056 176.168533,75.474258 
	C176.168533,75.474258 176.344849,75.790947 176.367737,76.199234 
	C176.433807,77.466705 176.477005,78.325890 176.520203,79.185081 
	C176.520203,79.185081 176.248489,79.065613 175.844421,79.127380 
	C175.016830,79.642052 174.593323,80.094955 174.169800,80.547859 
	C173.685791,80.475159 173.201797,80.402466 172.113037,80.265984 
	C171.334625,80.217903 171.160965,80.233604 170.987289,80.249313 
	C170.828140,80.186790 170.668976,80.124275 170.063766,79.748154 
	C168.963882,79.578629 168.310013,79.722710 167.656158,79.866791 
	C167.999161,80.849564 168.342148,81.832336 168.946014,83.044670 
z"/>
<path fill="#E7E3E1" opacity="1.000000" stroke="none" 
	d="
M230.577942,60.404434 
	C230.202225,65.829628 229.853531,70.722847 229.504837,75.616066 
	C229.171387,75.813896 228.837936,76.011734 228.504486,76.209564 
	C226.273071,71.891266 224.041641,67.572975 221.895752,62.845139 
	C223.472794,62.997669 224.964294,63.559734 225.316589,63.692493 
	C227.386566,62.197258 228.995773,61.034859 230.577942,60.404434 
z"/>
<path fill="#CFCAC8" opacity="1.000000" stroke="none" 
	d="
M272.019836,83.157547 
	C271.723969,83.649193 271.428101,84.140831 271.032501,84.901810 
	C270.358429,84.233070 269.784088,83.294998 269.417969,81.541580 
	C269.459015,77.676514 269.291779,74.626778 269.118591,71.557526 
	C269.112640,71.538010 269.152283,71.578613 269.152283,71.578613 
	C269.177185,68.956940 268.849579,66.265511 269.349762,63.737896 
	C269.688416,62.026787 270.935699,59.517540 272.231384,59.195591 
	C274.345886,58.670185 277.642883,57.472149 278.576904,61.767437 
	C277.941528,62.115528 277.363739,62.078049 276.056427,61.779266 
	C274.023071,61.517963 272.719208,61.517963 270.649811,61.517963 
	C271.116028,68.881676 271.567932,76.019615 272.019836,83.157547 
z"/>
<path fill="#BEBAB7" opacity="1.000000" stroke="none" 
	d="
M214.207947,82.426086 
	C213.799942,83.402473 213.408554,83.919571 212.981079,84.776169 
	C212.435379,82.925873 211.792877,80.756493 211.452271,78.540718 
	C211.088104,76.171700 211.008667,73.758926 210.401001,71.180435 
	C211.064774,69.678131 212.132462,68.360634 213.535400,66.998703 
	C213.988617,71.958435 214.106583,76.962624 214.207947,82.426086 
z"/>
<path fill="#645F5D" opacity="1.000000" stroke="none" 
	d="
M241.225555,63.772919 
	C241.701172,70.475517 241.898956,77.217659 242.105896,84.421005 
	C241.719391,84.976936 241.323715,85.071663 240.619904,85.165039 
	C240.121567,78.449852 239.931366,71.736000 239.804108,64.563904 
	C240.227295,64.007919 240.587509,63.910191 241.225555,63.772919 
z"/>
<path fill="#C3BFBB" opacity="1.000000" stroke="none" 
	d="
M180.679688,61.075851 
	C179.742432,61.188797 178.805176,61.301743 177.040649,61.323174 
	C174.945938,61.388901 173.678497,61.546146 172.411057,61.703392 
	C170.326599,62.765831 168.242142,63.828262 166.046738,64.947250 
	C166.963913,59.255859 169.189041,58.273102 179.695435,59.329391 
	C180.368500,60.164558 180.524094,60.620205 180.679688,61.075851 
z"/>
<path fill="#CAC4C2" opacity="1.000000" stroke="none" 
	d="
M324.024536,61.549355 
	C323.784668,62.248188 323.404846,62.581928 322.824890,63.244598 
	C319.076843,59.537331 315.932129,60.056297 314.028046,64.946098 
	C313.754059,65.649620 313.153656,66.226021 312.335205,66.935272 
	C312.840668,64.367981 312.962158,60.454548 314.767670,59.385677 
	C317.427795,57.810879 321.433990,57.616821 324.024536,61.549355 
z"/>
<path fill="#BEBAB7" opacity="1.000000" stroke="none" 
	d="
M214.068085,62.719322 
	C212.284561,62.877705 210.712784,62.705242 209.112091,62.195992 
	C212.329758,60.840710 215.553131,59.731407 218.845123,58.890808 
	C219.410690,58.746399 220.268433,59.746147 221.149780,60.625938 
	C218.965515,61.485844 216.622665,61.937164 214.068085,62.719322 
z"/>
<path fill="#DAD6D4" opacity="1.000000" stroke="none" 
	d="
M197.640228,62.817207 
	C198.174683,64.857849 198.383347,66.967407 198.592026,69.076958 
	C197.963257,69.151695 197.334488,69.226425 196.705704,69.301163 
	C196.119461,66.720406 191.753372,65.620247 194.662323,61.711689 
	C195.798904,62.031784 196.556671,62.458950 197.640228,62.817207 
z"/>
<path fill="#BEBAB7" opacity="1.000000" stroke="none" 
	d="
M357.744568,70.899109 
	C358.085541,75.402084 358.071655,79.857643 358.085907,84.721512 
	C357.613312,82.532135 357.017151,79.948029 356.644745,77.332069 
	C356.388641,75.533066 356.442993,73.689850 356.178284,71.433792 
	C356.461884,70.951363 356.925781,70.901527 357.744568,70.899109 
z"/>
<path fill="#B4B1AD" opacity="1.000000" stroke="none" 
	d="
M302.107605,62.452309 
	C299.400299,62.031322 296.714294,61.605961 294.057831,61.041786 
	C292.952942,60.807140 291.910980,60.276382 290.941284,59.451942 
	C295.225220,59.494392 299.408325,59.965172 303.274994,60.821316 
	C302.651642,61.571255 302.344727,61.935829 302.037781,62.300407 
	C302.037781,62.300407 302.140869,62.391937 302.107605,62.452309 
z"/>
<path fill="#C3BFBB" opacity="1.000000" stroke="none" 
	d="
M257.361267,62.965546 
	C257.106689,62.180805 256.852112,61.396065 256.309723,60.312057 
	C258.636932,61.734657 261.251953,63.456535 263.955322,65.492973 
	C263.475769,66.154099 262.907898,66.500664 261.745300,66.703323 
	C259.887482,65.361458 258.624359,64.163498 257.361267,62.965546 
z"/>
<path fill="#DDD9D7" opacity="1.000000" stroke="none" 
	d="
M369.574219,59.620514 
	C368.633606,60.008839 367.291626,60.646114 365.906128,61.167736 
	C363.735992,61.984768 360.469269,59.313992 359.124817,63.629837 
	C357.765320,63.855400 356.555511,63.707775 355.158691,63.321442 
	C358.831177,58.225414 364.272827,60.240086 369.574219,59.620514 
z"/>
<path fill="#CFCAC8" opacity="1.000000" stroke="none" 
	d="
M282.535034,77.391823 
	C282.442719,74.311081 282.642883,71.127907 282.911438,67.542694 
	C283.435455,67.082169 283.891113,67.023674 284.686890,66.901886 
	C285.063934,67.039589 285.100922,67.240593 284.773193,68.024307 
	C284.277130,71.381874 284.145752,74.156723 284.014343,76.931580 
	C283.618744,77.050842 283.223145,77.170113 282.535034,77.391823 
z"/>
<path fill="#928F8C" opacity="1.000000" stroke="none" 
	d="
M269.124542,71.577049 
	C269.291779,74.626778 269.459015,77.676514 269.406189,81.171021 
	C268.892914,81.589241 268.637909,81.476349 268.238708,81.169617 
	C267.969849,78.180672 267.883362,75.299202 268.099365,71.908157 
	C268.642731,71.458069 268.883636,71.517563 269.124542,71.577049 
z"/>
<path fill="#E7E3E1" opacity="1.000000" stroke="none" 
	d="
M188.893143,65.980377 
	C190.119278,68.154716 191.006989,70.379440 191.894714,72.604164 
	C191.745117,72.620384 191.566528,72.696419 191.451782,72.640770 
	C191.186310,72.512009 190.951752,72.319504 190.375366,72.041199 
	C189.212677,70.720093 188.379318,69.510643 187.272552,68.133278 
	C187.517685,67.320503 188.036209,66.675629 188.893143,65.980377 
z"/>
<path fill="#DDD9D7" opacity="1.000000" stroke="none" 
	d="
M307.512268,87.258194 
	C307.758026,86.706841 308.323090,85.888084 308.888123,85.069321 
	C309.586273,86.143547 310.284424,87.217773 310.985474,88.698959 
	C309.936096,88.400871 308.883850,87.695831 307.512268,87.258194 
z"/>
<path fill="#BEBAB7" opacity="1.000000" stroke="none" 
	d="
M377.368408,89.023140 
	C377.050201,87.345276 377.059235,85.552116 377.068878,83.311066 
	C377.278198,84.878075 377.486938,86.892960 377.368408,89.023140 
z"/>
<path fill="#1F1B19" opacity="1.000000" stroke="none" 
	d="
M167.662231,72.895828 
	C166.719757,72.376900 165.992447,71.834358 165.265152,71.291824 
	C166.210953,70.491280 167.156769,69.690727 168.102570,68.890182 
	C168.362778,69.135841 168.622986,69.381493 168.883194,69.627151 
	C168.653076,70.378670 168.422958,71.130188 168.065659,72.162651 
	C167.938477,72.443596 167.877411,72.872215 167.662231,72.895828 
z"/>
<path fill="#C3BFBB" opacity="1.000000" stroke="none" 
	d="
M236.966827,62.599907 
	C236.354233,62.990639 235.620773,63.034023 234.516449,63.065548 
	C233.936615,62.593491 233.727615,62.133293 233.499725,61.292503 
	C233.611130,60.313450 233.741409,59.714981 233.871689,59.116508 
	C234.863113,60.161858 235.854538,61.207207 236.966827,62.599907 
z"/>
<path fill="#DDD9D7" opacity="1.000000" stroke="none" 
	d="
M373.089722,71.295998 
	C374.166595,70.675819 375.365936,70.349945 376.943909,70.053741 
	C376.979919,70.495743 376.637207,70.908081 376.183777,71.585083 
	C375.119415,71.763268 374.165802,71.676788 373.089722,71.295998 
z"/>
<path fill="#DDD9D7" opacity="1.000000" stroke="none" 
	d="
M377.774170,69.576180 
	C377.427399,68.444603 377.317169,67.091576 377.458160,65.417267 
	C377.809845,66.515564 377.910278,67.935143 377.774170,69.576180 
z"/>
<path fill="#DDD9D7" opacity="1.000000" stroke="none" 
	d="
M374.261963,62.600517 
	C373.771149,62.909595 373.278961,62.938572 372.417480,62.987152 
	C371.679932,61.975582 371.311707,60.944416 371.485413,59.679363 
	C372.771759,60.403793 373.516174,61.362106 374.261963,62.600517 
z"/>
<path fill="#E7E3E1" opacity="1.000000" stroke="none" 
	d="
M179.804596,72.969620 
	C180.207321,71.984802 180.678558,71.263092 181.149811,70.541382 
	C181.150909,71.487679 181.152023,72.433968 180.948120,73.606232 
	C180.453094,73.632378 180.163116,73.432556 179.804596,72.969620 
z"/>
<path fill="#BEBAB7" opacity="1.000000" stroke="none" 
	d="
M360.507111,86.115120 
	C361.011353,86.714890 361.502380,87.588814 362.009094,88.795784 
	C361.514496,88.215645 361.004181,87.302460 360.507111,86.115120 
z"/>
<path fill="#1F1B19" opacity="1.000000" stroke="none" 
	d="
M176.803406,79.090141 
	C176.477005,78.325890 176.433807,77.466705 176.548889,76.204010 
	C176.833649,76.865410 176.960129,77.930305 176.803406,79.090141 
z"/>
<path fill="#DDD9D7" opacity="1.000000" stroke="none" 
	d="
M318.196198,88.974228 
	C318.236694,88.322784 318.454529,87.736206 318.899414,87.053925 
	C318.875458,87.651848 318.624512,88.345474 318.196198,88.974228 
z"/>
<path fill="#1F1B19" opacity="1.000000" stroke="none" 
	d="
M174.365997,80.703339 
	C174.593323,80.094955 175.016830,79.642052 175.784302,79.263077 
	C175.606247,79.844269 175.084229,80.351547 174.365997,80.703339 
z"/>
<path fill="#CFCAC8" opacity="1.000000" stroke="none" 
	d="
M281.022766,63.664509 
	C280.431946,63.690762 279.743317,63.437885 278.938416,62.922989 
	C279.523071,62.902439 280.224030,63.143909 281.022766,63.664509 
z"/>
<path fill="#1F1B19" opacity="1.000000" stroke="none" 
	d="
M172.791748,61.811035 
	C173.678497,61.546146 174.945938,61.388901 176.571121,61.385361 
	C175.676727,61.665604 174.424576,61.792141 172.791748,61.811035 
z"/>
<path fill="#DDD9D7" opacity="1.000000" stroke="none" 
	d="
M304.246948,89.227112 
	C304.615173,88.786812 305.266113,88.435768 306.213135,88.140656 
	C305.849365,88.569847 305.189514,88.943100 304.246948,89.227112 
z"/>
<path fill="#DAD6D4" opacity="1.000000" stroke="none" 
	d="
M229.329346,87.199043 
	C229.879822,87.382210 230.429413,87.871025 230.994476,88.657242 
	C230.449448,88.471336 229.888947,87.988014 229.329346,87.199043 
z"/>
<path fill="#1F1B19" opacity="1.000000" stroke="none" 
	d="
M180.655396,61.048820 
	C180.524094,60.620205 180.368500,60.164558 180.086151,59.364590 
	C180.631500,59.379063 181.303604,59.737858 182.005005,60.414825 
	C181.789734,60.774273 181.545197,60.815548 180.934280,60.921326 
	C180.567902,60.985832 180.631088,61.021793 180.655396,61.048820 
z"/>
<path fill="#C3BFBB" opacity="1.000000" stroke="none" 
	d="
M267.489502,69.835739 
	C266.940674,69.573112 266.455811,69.021484 266.019104,68.176613 
	C266.562653,68.437828 267.058075,68.992287 267.489502,69.835739 
z"/>
<path fill="#928F8C" opacity="1.000000" stroke="none" 
	d="
M334.818420,63.651520 
	C334.769379,64.084839 334.509094,64.113068 334.379761,64.093002 
	C334.285492,63.074646 334.320557,62.076363 334.691895,60.863869 
	C334.974609,61.505836 334.921021,62.362015 334.818420,63.651520 
z"/>
<path fill="#1F1B19" opacity="1.000000" stroke="none" 
	d="
M168.045441,79.917702 
	C168.310013,79.722710 168.963882,79.578629 169.809174,79.716789 
	C169.478653,79.988892 168.956680,79.978752 168.045441,79.917702 
z"/>
<path fill="#1F1B19" opacity="1.000000" stroke="none" 
	d="
M176.134689,75.266548 
	C175.843689,75.482056 175.518860,75.489845 175.099243,75.234108 
	C175.369934,75.000000 175.735382,75.029419 176.134689,75.266548 
z"/>
<path fill="#1F1B19" opacity="1.000000" stroke="none" 
	d="
M172.039124,73.447311 
	C171.738281,73.619171 171.429230,73.574417 171.034576,73.281029 
	C171.309631,73.098495 171.670258,73.164589 172.039124,73.447311 
z"/>
<path fill="#D2CECB" opacity="1.000000" stroke="none" 
	d="
M182.309235,89.174026 
	C182.254898,89.042984 182.466827,88.821304 182.539825,88.863113 
	C182.612823,88.904922 182.624420,89.190201 182.624420,89.190201 
	C182.624420,89.190201 182.363556,89.305069 182.309235,89.174026 
z"/>
<path fill="#D2CECB" opacity="1.000000" stroke="none" 
	d="
M171.630463,88.948196 
	C171.742233,88.895210 171.849167,88.856407 171.883514,88.901749 
	C171.917862,88.947098 171.763733,89.207062 171.763733,89.207062 
	C171.763733,89.207062 171.518677,89.001190 171.630463,88.948196 
z"/>
<path fill="#DAD6D4" opacity="1.000000" stroke="none" 
	d="
M239.011398,89.158752 
	C238.966354,89.024582 239.054886,88.861115 239.145157,88.883324 
	C239.235428,88.905533 239.408539,89.147591 239.408539,89.147591 
	C239.408539,89.147591 239.056442,89.292915 239.011398,89.158752 
z"/>
<path fill="#CFCAC8" opacity="1.000000" stroke="none" 
	d="
M273.836792,89.097198 
	C273.862030,88.929138 273.820709,88.976349 273.830719,88.956093 
	C273.723785,89.079330 273.606812,89.222824 273.489838,89.366318 
	C273.597076,89.332626 273.704315,89.298935 273.836792,89.097198 
z"/>
<path fill="#DDD9D7" opacity="1.000000" stroke="none" 
	d="
M293.866760,89.074959 
	C293.937256,88.955872 293.899078,88.997055 293.891052,88.978691 
	C293.882996,88.960327 293.608551,89.215149 293.608551,89.215149 
	C293.608551,89.215149 293.796265,89.194046 293.866760,89.074959 
z"/>
<path fill="#D2CECB" opacity="1.000000" stroke="none" 
	d="
M184.339508,87.992737 
	C184.441483,87.965233 184.325958,88.004051 184.322357,87.971085 
	C184.318771,87.938126 184.237518,88.020241 184.339508,87.992737 
z"/>
<path fill="#D2CECB" opacity="1.000000" stroke="none" 
	d="
M186.060928,86.390533 
	C185.948746,86.313728 185.991913,86.259560 185.998749,86.245186 
	C186.005600,86.230812 186.274353,86.218056 186.274353,86.218056 
	C186.274353,86.218056 186.173111,86.467339 186.060928,86.390533 
z"/>
<path fill="#1F1B19" opacity="1.000000" stroke="none" 
	d="
M171.067719,80.402840 
	C171.160965,80.233604 171.334625,80.217903 171.747253,80.308144 
	C171.706894,80.461510 171.427521,80.508942 171.067719,80.402840 
z"/>
<path fill="#1F1B19" opacity="1.000000" stroke="none" 
	d="
M173.948441,74.551239 
	C174.013916,74.731277 173.537643,74.738396 173.537643,74.738396 
	C173.537643,74.738396 173.203827,74.398727 173.243927,74.163940 
	C173.553268,73.982193 173.752914,74.129539 173.948441,74.551239 
z"/>
<path fill="#C3BFBB" opacity="1.000000" stroke="none" 
	d="
M269.118591,71.557526 
	C268.883636,71.517563 268.642731,71.458069 268.029785,71.423660 
	C267.657745,71.448738 267.730072,71.329224 267.795532,71.304855 
	C268.067017,71.368149 268.273071,71.455826 268.815704,71.561050 
	C269.152283,71.578613 269.112640,71.538010 269.118591,71.557526 
z"/>
<path fill="#1F1B19" opacity="1.000000" stroke="none" 
	d="
M172.272186,68.886467 
	C172.553207,68.752213 172.911972,68.967255 173.447174,69.443924 
	C173.199051,69.548958 172.774475,69.392365 172.272186,68.886467 
z"/>
<path fill="#1F1B19" opacity="1.000000" stroke="none" 
	d="
M172.060791,65.104980 
	C172.235611,65.305382 172.204498,65.487282 171.948212,65.830124 
	C171.650101,65.759010 171.553452,65.530052 171.522446,65.292534 
	C171.515488,65.239227 171.737991,65.155960 172.060791,65.104980 
z"/>
<path fill="#1F1B19" opacity="1.000000" stroke="none" 
	d="
M177.798218,64.676941 
	C177.599304,64.889297 177.194885,64.855003 176.574249,64.598373 
	C176.769592,64.394112 177.181137,64.412193 177.798218,64.676941 
z"/>
<path fill="#E5E1DF" opacity="1.000000" stroke="none" 
	d="
M302.496826,62.450012 
	C302.344727,61.935829 302.651642,61.571255 303.330383,61.127930 
	C303.453461,61.565990 303.204681,62.082809 302.496826,62.450012 
z"/>
<path fill="#645F5D" opacity="1.000000" stroke="none" 
	d="
M241.709045,59.998013 
	C241.925491,60.166447 241.928833,60.386906 241.744629,60.879875 
	C241.451599,60.903564 241.313354,60.661770 241.257706,60.402260 
	C241.237122,60.306293 241.410843,60.168663 241.709045,59.998013 
z"/>
<path fill="#F1ECEA" opacity="1.000000" stroke="none" 
	d="
M97.955940,54.507622 
	C102.623291,48.531715 107.675056,48.507923 110.219193,54.673069 
	C109.498367,54.820835 109.294708,54.742962 108.966881,54.314064 
	C107.356224,53.547993 105.869728,53.132946 104.383232,52.717899 
	C104.325317,52.968697 104.267403,53.219494 104.209488,53.470291 
	C105.264206,54.356419 106.318932,55.242542 107.318985,56.585823 
	C107.295364,69.012268 107.326424,80.981552 107.065689,93.206879 
	C105.310020,93.263489 103.666885,93.418427 102.420967,92.788170 
	C100.090942,91.609467 97.991310,89.975327 95.703796,88.408539 
	C95.611763,88.286407 95.313148,88.220261 95.262955,88.134567 
	C95.212769,88.048866 94.866776,87.878288 94.600746,87.515015 
	C94.048126,80.104660 93.522682,73.054169 93.623344,66.012634 
	C93.652794,63.952579 95.234856,61.757668 96.524345,59.918362 
	C97.731277,58.196831 100.569160,57.164948 97.955940,54.507622 
z"/>
<path fill="#3E3937" opacity="1.000000" stroke="none" 
	d="
M41.581402,99.347023 
	C37.293488,98.014275 36.344566,94.419952 36.287971,90.698387 
	C36.121170,79.730194 36.050488,68.753471 36.307194,57.788628 
	C36.453175,51.553478 39.333992,48.846497 46.610687,47.571365 
	C48.006058,48.830097 48.975937,49.752216 49.531197,50.746254 
	C41.262653,51.235748 39.856628,52.648079 39.826836,60.382790 
	C39.790413,69.837570 39.784546,79.292740 39.825859,88.747475 
	C39.855431,95.514999 41.661507,97.621376 48.200737,97.673767 
	C60.471222,97.772064 72.743958,97.589340 85.025536,97.773849 
	C85.021439,98.357948 85.007568,98.691689 84.525635,99.021179 
	C72.239067,99.025215 60.420502,99.017525 48.602081,99.055374 
	C46.261566,99.062866 43.921616,99.245277 41.581402,99.347023 
z"/>
<path fill="#34302E" opacity="1.000000" stroke="none" 
	d="
M84.993698,99.025421 
	C85.007568,98.691689 85.021439,98.357948 85.324280,97.633896 
	C86.602730,96.779221 87.592201,96.314865 88.946640,95.714600 
	C89.732033,94.125916 90.152466,92.673157 90.447144,90.819672 
	C90.398865,82.326462 90.476326,74.233971 90.844223,65.986473 
	C90.929047,65.171608 90.723434,64.511749 90.412949,63.460938 
	C90.359474,60.982811 90.410866,58.895634 90.597351,56.475677 
	C90.328339,55.419498 89.924225,54.696102 89.272522,53.803299 
	C88.653313,53.172546 88.281700,52.711197 87.748245,51.947662 
	C87.163162,51.506363 86.739914,51.367249 86.025757,51.240841 
	C85.177460,51.088650 84.620056,50.923752 84.062309,50.454231 
	C83.738861,49.206657 83.415764,48.263706 83.092659,47.320759 
	C89.008392,47.381306 91.865883,51.097397 94.161606,56.449982 
	C95.110107,56.505096 95.519165,56.240005 95.928223,55.974915 
	C96.521317,55.698021 97.114403,55.421124 97.831711,54.825924 
	C100.569160,57.164948 97.731277,58.196831 96.524345,59.918362 
	C95.234856,61.757668 93.652794,63.952579 93.623344,66.012634 
	C93.522682,73.054169 94.048126,80.104660 94.333923,87.554077 
	C94.281700,88.142059 94.230270,88.327705 94.178848,88.513344 
	C94.556946,88.415649 94.935051,88.317955 95.313148,88.220261 
	C95.313148,88.220261 95.611763,88.286407 95.421585,88.706253 
	C94.532463,90.165245 93.833534,91.204407 93.129082,92.589752 
	C93.066139,93.622917 93.008720,94.309891 92.951309,94.996857 
	C90.503204,96.949669 88.055107,98.902466 85.227776,100.475876 
	C84.896919,99.739464 84.945305,99.382446 84.993698,99.025421 
z"/>
<path fill="#030202" opacity="1.000000" stroke="none" 
	d="
M109.091042,54.665089 
	C109.294708,54.742962 109.498367,54.820835 110.028419,54.919952 
	C110.340721,67.332329 110.326645,79.723457 109.941681,92.730453 
	C109.590034,93.719765 109.609261,94.093193 109.628494,94.466629 
	C109.628494,94.466629 109.564682,94.908264 109.154312,94.904533 
	C108.281784,94.250816 107.819633,93.600830 107.357483,92.950844 
	C107.326424,80.981552 107.295364,69.012268 107.612045,56.529106 
	C108.336868,55.565189 108.713951,55.115139 109.091042,54.665089 
z"/>
<path fill="#272623" opacity="1.000000" stroke="none" 
	d="
M53.111839,47.334843 
	C60.729534,47.304081 68.347229,47.273319 76.380112,47.578384 
	C76.503212,48.815662 76.211128,49.717106 75.564552,50.678078 
	C74.494606,50.697411 73.779160,50.657211 72.971344,50.438652 
	C72.564430,50.378483 72.249878,50.496666 71.475769,50.674290 
	C64.877869,50.691288 58.739521,50.648853 52.685856,50.200935 
	C52.884304,48.975250 52.998074,48.155048 53.111839,47.334843 
z"/>
<path fill="#030202" opacity="1.000000" stroke="none" 
	d="
M84.525635,99.021179 
	C84.945305,99.382446 84.896919,99.739464 84.885025,100.365166 
	C72.259811,100.770683 59.598103,100.907516 46.429974,100.706017 
	C45.601860,100.457703 45.280167,100.547722 44.958473,100.637749 
	C44.429840,100.569359 43.901211,100.500969 43.064327,99.984772 
	C42.406097,99.502289 42.056118,99.467590 41.706139,99.432892 
	C41.706139,99.432892 41.629860,99.410339 41.605629,99.378677 
	C43.921616,99.245277 46.261566,99.062866 48.602081,99.055374 
	C60.420502,99.017525 72.239067,99.025215 84.525635,99.021179 
z"/>
<path fill="#4D4544" opacity="1.000000" stroke="none" 
	d="
M107.065689,93.206879 
	C107.819633,93.600830 108.281784,94.250816 109.003899,95.069321 
	C104.898087,100.745712 101.553383,96.176674 97.419525,93.694580 
	C95.632950,92.945862 94.383774,92.594711 93.134598,92.243561 
	C93.833534,91.204407 94.532463,90.165245 95.513611,88.828384 
	C97.991310,89.975327 100.090942,91.609467 102.420967,92.788170 
	C103.666885,93.418427 105.310020,93.263489 107.065689,93.206879 
z"/>
<path fill="#645F5D" opacity="1.000000" stroke="none" 
	d="
M75.919044,50.618549 
	C76.211128,49.717106 76.503212,48.815662 76.838928,47.625130 
	C78.664886,47.248951 80.447220,47.161858 82.661102,47.197762 
	C83.415764,48.263706 83.738861,49.206657 83.620201,50.569725 
	C80.758644,50.866077 78.338844,50.742313 75.919044,50.618549 
z"/>
<path fill="#645F5D" opacity="1.000000" stroke="none" 
	d="
M52.684097,47.207436 
	C52.998074,48.155048 52.884304,48.975250 52.449471,50.355507 
	C51.400875,50.835148 50.673347,50.754738 49.945820,50.674332 
	C48.975937,49.752216 48.006058,48.830097 46.984146,47.599640 
	C48.706860,47.220875 50.481609,47.150452 52.684097,47.207436 
z"/>
<path fill="#F3EFED" opacity="1.000000" stroke="none" 
	d="
M93.129082,92.589752 
	C94.383774,92.594711 95.632950,92.945862 97.103378,93.581741 
	C96.117416,94.219650 94.910202,94.572838 93.327148,94.961441 
	C93.008720,94.309891 93.066139,93.622917 93.129082,92.589752 
z"/>
<path fill="#4D4544" opacity="1.000000" stroke="none" 
	d="
M109.877502,94.306602 
	C109.609261,94.093193 109.590034,93.719765 109.835495,93.191086 
	C110.108971,93.406082 110.117744,93.776329 109.877502,94.306602 
z"/>
<path fill="#3E3937" opacity="1.000000" stroke="none" 
	d="
M45.211250,100.813843 
	C45.280167,100.547722 45.601860,100.457703 45.981491,100.568649 
	C45.847626,100.843063 45.655827,100.916504 45.211250,100.813843 
z"/>
<path fill="#3E3937" opacity="1.000000" stroke="none" 
	d="
M41.816452,99.684082 
	C42.056118,99.467590 42.406097,99.502289 42.858505,99.808777 
	C42.616215,100.032143 42.271492,99.983704 41.816452,99.684082 
z"/>
<path fill="#F1ECEA" opacity="1.000000" stroke="none" 
	d="
M95.509842,56.045406 
	C95.519165,56.240005 95.110107,56.505096 94.491554,56.570412 
	C94.551857,56.285725 94.821663,56.200809 95.509842,56.045406 
z"/>
<path fill="#E7E3E1" opacity="1.000000" stroke="none" 
	d="
M184.103683,63.106003 
	C185.347778,62.930317 186.602722,63.084316 187.908783,63.620377 
	C186.678101,63.813515 185.396332,63.624599 184.103683,63.106003 
z"/>
<path fill="#D2CECB" opacity="1.000000" stroke="none" 
	d="
M321.258972,72.469757 
	C319.785065,73.534248 318.222290,74.162193 315.376831,75.305534 
	C316.506195,71.235191 317.214203,68.683403 317.922241,66.131615 
	C318.306976,66.066071 318.691711,66.000526 319.076447,65.934975 
	C319.774353,67.967720 320.472229,70.000465 321.258972,72.469757 
z"/>
<path fill="#BEBAB7" opacity="1.000000" stroke="none" 
	d="
M345.548645,75.943497 
	C345.312836,75.857758 345.242401,75.678497 345.270508,75.227699 
	C345.484009,75.254097 345.598999,75.552048 345.548645,75.943497 
z"/>
<path fill="#191715" opacity="1.000000" stroke="none" 
	d="
M256.970642,62.708168 
	C258.624359,64.163498 259.887482,65.361458 261.400513,66.712189 
	C261.904297,69.146095 262.497375,71.449928 262.346466,73.703964 
	C261.942780,79.734680 258.412231,82.926094 252.383453,83.038101 
	C249.913254,83.084007 247.440247,82.978928 244.518173,82.854507 
	C244.067841,75.836586 244.067841,68.906670 244.067841,60.947647 
	C248.625763,61.495209 252.602905,61.973003 256.970642,62.708168 
M251.303726,64.891785 
	C250.380264,65.347130 248.677750,65.766724 248.654968,66.263397 
	C248.447693,70.780075 248.533356,75.310181 248.533356,79.962807 
	C253.746719,79.886261 257.176208,78.818909 257.630005,73.876167 
	C258.021973,69.606682 257.578949,65.727776 251.303726,64.891785 
z"/>
<path fill="#E7E3E1" opacity="1.000000" stroke="none" 
	d="
M284.424133,76.820969 
	C284.145752,74.156723 284.277130,71.381874 284.676208,68.315140 
	C284.907257,70.918953 284.870605,73.814651 284.424133,76.820969 
z"/>
<path fill="#0E0909" opacity="1.000000" stroke="none" 
	d="
M272.464752,83.081688 
	C271.567932,76.019615 271.116028,68.881676 270.649811,61.517963 
	C272.719208,61.517963 274.023071,61.517963 275.768707,61.741707 
	C276.215057,67.912239 276.080994,73.863838 276.286652,79.803673 
	C276.380157,82.504837 275.408203,83.382774 272.464752,83.081688 
z"/>
<path fill="#4D4544" opacity="1.000000" stroke="none" 
	d="
M108.966881,54.314064 
	C108.713951,55.115139 108.336868,55.565189 107.666718,56.071953 
	C106.318932,55.242542 105.264206,54.356419 104.209488,53.470291 
	C104.267403,53.219494 104.325317,52.968697 104.383232,52.717899 
	C105.869728,53.132946 107.356224,53.547993 108.966881,54.314064 
z"/>
<path fill="#4D4544" opacity="1.000000" stroke="none" 
	d="
M95.262955,88.134567 
	C94.935051,88.317955 94.556946,88.415649 94.178848,88.513344 
	C94.230270,88.327705 94.281700,88.142059 94.599945,87.917358 
	C94.866776,87.878288 95.212769,88.048866 95.262955,88.134567 
z"/>
<path fill="#FBF7F6" opacity="1.000000" stroke="none" 
	d="
M49.531197,50.746250 
	C50.673347,50.754738 51.400875,50.835148 52.364788,50.760986 
	C58.739521,50.648853 64.877869,50.691288 71.757660,50.805588 
	C72.687294,50.790638 72.875496,50.703823 73.063705,50.617012 
	C73.779160,50.657211 74.494606,50.697411 75.564552,50.678078 
	C78.338844,50.742313 80.758644,50.866077 83.620552,50.874352 
	C84.620056,50.923752 85.177460,51.088650 86.219200,51.509174 
	C87.105728,51.926483 87.507904,52.088165 87.910088,52.249847 
	C88.281700,52.711197 88.653313,53.172546 89.290627,54.108070 
	C89.858307,55.324322 90.160278,56.066391 90.462250,56.808460 
	C90.410866,58.895634 90.359474,60.982811 90.281281,63.668312 
	C90.354248,64.891586 90.454018,65.516533 90.553780,66.141479 
	C90.476326,74.233971 90.398865,82.326462 90.230911,91.110825 
	C89.620842,93.151970 89.101257,94.501244 88.581673,95.850525 
	C87.592201,96.314865 86.602730,96.779221 85.314499,97.383530 
	C72.743958,97.589340 60.471222,97.772064 48.200737,97.673767 
	C41.661507,97.621376 39.855431,95.514999 39.825859,88.747475 
	C39.784546,79.292740 39.790413,69.837570 39.826836,60.382790 
	C39.856628,52.648079 41.262653,51.235748 49.531197,50.746250 
z"/>
<path fill="#3E3937" opacity="1.000000" stroke="none" 
	d="
M88.946640,95.714600 
	C89.101257,94.501244 89.620842,93.151970 90.356659,91.511543 
	C90.152466,92.673157 89.732033,94.125916 88.946640,95.714600 
z"/>
<path fill="#3E3937" opacity="1.000000" stroke="none" 
	d="
M90.844223,65.986473 
	C90.454018,65.516533 90.354248,64.891586 90.386154,64.059265 
	C90.723434,64.511749 90.929047,65.171608 90.844223,65.986473 
z"/>
<path fill="#3E3937" opacity="1.000000" stroke="none" 
	d="
M90.597351,56.475677 
	C90.160278,56.066391 89.858307,55.324322 89.538223,54.277477 
	C89.924225,54.696102 90.328339,55.419498 90.597351,56.475677 
z"/>
<path fill="#3E3937" opacity="1.000000" stroke="none" 
	d="
M87.748245,51.947662 
	C87.507904,52.088165 87.105728,51.926483 86.510101,51.496468 
	C86.739914,51.367249 87.163162,51.506363 87.748245,51.947662 
z"/>
<path fill="#645F5D" opacity="1.000000" stroke="none" 
	d="
M72.971344,50.438652 
	C72.875496,50.703823 72.687294,50.790638 72.217209,50.746151 
	C72.249878,50.496666 72.564430,50.378483 72.971344,50.438652 
z"/>
<path fill="#DFDBD9" opacity="1.000000" stroke="none" 
	d="
M251.710327,64.974236 
	C257.578949,65.727776 258.021973,69.606682 257.630005,73.876167 
	C257.176208,78.818909 253.746719,79.886261 248.533356,79.962807 
	C248.533356,75.310181 248.447693,70.780075 248.654968,66.263397 
	C248.677750,65.766724 250.380264,65.347130 251.710327,64.974236 
z"/>
</svg>